<?xml version="1.0" encoding="UTF-8" standalone="no"?>
<!DOCTYPE svg PUBLIC "-//W3C//DTD SVG 1.1//EN" "http://www.w3.org/Graphics/SVG/1.1/DTD/svg11.dtd">
<svg width="100%" height="100%" viewBox="0 0 3758 564" version="1.1" xmlns="http://www.w3.org/2000/svg" xmlns:xlink="http://www.w3.org/1999/xlink" xml:space="preserve" xmlns:serif="http://www.serif.com/" style="fill-rule:evenodd;clip-rule:evenodd;stroke-linejoin:round;stroke-miterlimit:2;">
    <g id="Artboard" transform="matrix(6.66663,0,0,1,-307.596,-49.1063)">
        <rect x="46.14" y="49.106" width="563.69" height="563.754" style="fill:none;"/>
        <clipPath id="_clip1">
            <rect x="46.14" y="49.106" width="563.69" height="563.754"/>
        </clipPath>
        <g clip-path="url(#_clip1)">
            <g transform="matrix(5.14913e-18,0.560608,-0.175745,7.17413e-17,149.687,96.4917)">
                <path d="M155.275,342.628L158.164,338.922L376.664,120.422C380.607,117.274 381.21,116.292 386.898,113.758C401.752,107.141 425.971,106.023 443.224,111.225C448.141,112.707 452.432,114.619 455.873,116.86C457.586,117.975 458.848,119.234 460.336,120.422L678.836,338.922C680.766,341.398 682.703,343.9 683.194,346.522C683.93,350.458 681.755,354.334 678.836,358.078L460.336,576.578C456.393,579.726 455.79,580.708 450.102,583.242C435.271,589.849 411.26,591.046 393.776,585.775C388.859,584.293 384.568,582.381 381.127,580.14C379.414,579.025 378.152,577.766 376.664,576.578L158.164,358.078C157.201,356.843 156.004,355.643 155.275,354.372C153.317,350.958 153.806,350.02 153.806,346.522C154.296,345.224 154.785,343.926 155.275,342.628ZM418.5,515.586L585.586,348.5L418.5,181.414L251.414,348.5C307.109,404.195 362.805,459.891 418.5,515.586Z" style="fill:rgb(0,242,203);"/>
            </g>
            <g transform="matrix(0.150001,0,0,1,50.0396,75.1063)">
                <path d="M228.418,394.118L256,451.762L349.67,256L319.355,192.645L394.118,228.418L401.946,244.778C403.028,247.679 404.114,250.611 404.389,253.682C404.802,258.295 403.583,262.835 401.946,267.222L279.453,523.222C277.243,526.91 276.905,528.061 273.716,531.03C265.402,538.77 251.941,540.173 242.14,533.997C239.383,532.261 236.977,530.021 235.048,527.396C234.088,526.089 233.38,524.613 232.547,523.222L153.655,358.345L228.418,394.118ZM117.882,283.582L110.054,267.222C107.875,261.381 106.792,255.105 108.434,249.121C108.843,247.631 109.514,246.225 110.054,244.778L232.547,-11.222C233.38,-12.613 234.088,-14.089 235.048,-15.396C238.907,-20.647 244.753,-24.331 251.156,-25.545C254.336,-26.148 257.608,-25.849 260.844,-25.545C263.967,-24.643 267.121,-23.723 269.86,-21.997C272.617,-20.261 275.023,-18.021 276.952,-15.396C277.912,-14.089 278.62,-12.613 279.453,-11.222L358.345,153.655L283.582,117.882L256,60.238C224.777,125.492 193.553,190.746 162.33,256L192.645,319.355L117.882,283.582Z" style="fill:rgb(0,113,171);"/>
            </g>
            <g transform="matrix(0.150001,0,0,1,4.47667,86.4277)">
                <path d="M1111.12,343.956C1108.94,343.956 1107.85,342.866 1107.85,340.686L1107.85,118.284C1107.85,116.104 1108.94,115.013 1111.12,115.013L1127.8,115.013C1129.98,115.013 1131.07,116.104 1131.07,118.284L1131.07,322.37C1131.07,323.242 1131.51,323.678 1132.38,323.678L1247.83,323.678C1250.01,323.678 1251.1,324.769 1251.1,326.949L1251.1,340.686C1251.1,342.866 1250.01,343.956 1247.83,343.956L1111.12,343.956Z" style="fill-rule:nonzero;"/>
                <path d="M1346.28,175.847C1365.9,175.847 1381.05,180.862 1391.74,190.892C1402.42,200.921 1407.76,214.222 1407.76,230.793L1407.76,340.686C1407.76,342.866 1406.67,343.956 1404.49,343.956L1387.81,343.956C1385.63,343.956 1384.54,342.866 1384.54,340.686L1384.54,327.276C1384.54,326.84 1384.38,326.513 1384.05,326.295C1383.73,326.077 1383.34,326.186 1382.91,326.622C1377.46,333.163 1370.37,338.124 1361.65,341.503C1352.93,344.883 1343.22,346.573 1332.54,346.573C1317.06,346.573 1304.09,342.648 1293.62,334.798C1283.15,326.949 1277.92,314.957 1277.92,298.822C1277.92,282.469 1283.86,269.55 1295.75,260.065C1307.63,250.58 1324.14,245.838 1345.3,245.838L1383.23,245.838C1384.11,245.838 1384.54,245.402 1384.54,244.53L1384.54,232.101C1384.54,220.981 1381.43,212.205 1375.22,205.773C1369.01,199.341 1359.36,196.125 1346.28,196.125C1335.81,196.125 1327.31,198.141 1320.77,202.175C1314.22,206.209 1310.19,211.823 1308.66,219.019C1308.01,221.199 1306.7,222.18 1304.74,221.962L1287.08,219.673C1284.68,219.237 1283.7,218.365 1284.13,217.056C1285.88,204.846 1292.42,194.925 1303.76,187.294C1315.1,179.662 1329.27,175.847 1346.28,175.847ZM1337.12,326.622C1349.98,326.622 1361.1,323.406 1370.48,316.974C1379.85,310.541 1384.54,301.874 1384.54,290.972L1384.54,265.462C1384.54,264.589 1384.11,264.153 1383.23,264.153L1348.89,264.153C1334.5,264.153 1322.95,267.097 1314.22,272.984C1305.5,278.871 1301.14,287.048 1301.14,297.514C1301.14,307.107 1304.47,314.357 1311.12,319.263C1317.77,324.169 1326.43,326.622 1337.12,326.622Z" style="fill-rule:nonzero;"/>
                <path d="M1583.39,220.654C1586.01,230.466 1587.32,243.985 1587.32,261.21C1587.32,279.089 1585.79,292.935 1582.74,302.746C1578.6,316.265 1571.4,326.949 1561.15,334.798C1550.91,342.648 1538.15,346.573 1522.89,346.573C1514.17,346.573 1506.21,344.828 1499.01,341.34C1491.82,337.851 1485.82,332.836 1481.03,326.295C1480.81,325.859 1480.48,325.695 1480.04,325.804C1479.61,325.913 1479.39,326.186 1479.39,326.622L1479.39,340.686C1479.39,342.866 1478.3,343.956 1476.12,343.956L1459.44,343.956C1457.26,343.956 1456.17,342.866 1456.17,340.686L1456.17,118.284C1456.17,116.104 1457.26,115.013 1459.44,115.013L1476.12,115.013C1478.3,115.013 1479.39,116.104 1479.39,118.284L1479.39,195.47C1479.39,195.907 1479.55,196.179 1479.88,196.288C1480.21,196.397 1480.59,196.234 1481.03,195.798C1485.82,189.474 1491.82,184.568 1499.01,181.08C1506.21,177.591 1514.17,175.847 1522.89,175.847C1538.37,175.847 1551.34,179.826 1561.81,187.785C1572.28,195.743 1579.47,206.7 1583.39,220.654ZM1558.21,300.784C1560.39,296.205 1561.92,291.027 1562.79,285.249C1563.66,279.471 1564.1,271.458 1564.1,261.21C1564.1,250.526 1563.5,242.186 1562.3,236.19C1561.1,230.193 1559.19,224.797 1556.58,220C1553.74,212.805 1549.16,207.027 1542.84,202.666C1536.52,198.305 1528.99,196.125 1520.27,196.125C1511.99,196.125 1504.85,198.359 1498.85,202.829C1492.85,207.299 1488.55,213.241 1485.93,220.654C1483.75,225.233 1482.17,230.466 1481.19,236.353C1480.21,242.24 1479.72,250.526 1479.72,261.21C1479.72,271.676 1480.21,279.798 1481.19,285.576C1482.17,291.354 1483.64,296.532 1485.6,301.111C1488.44,308.743 1492.8,314.848 1498.69,319.427C1504.57,324.005 1511.88,326.295 1520.6,326.295C1529.76,326.295 1537.66,324.005 1544.31,319.427C1550.96,314.848 1555.6,308.634 1558.21,300.784Z" style="fill-rule:nonzero;"/>
                <path d="M1842.76,115.013C1844.93,115.013 1846.03,116.104 1846.03,118.284L1846.03,132.348C1846.03,134.528 1844.93,135.618 1842.76,135.618L1778.65,135.618C1777.78,135.618 1777.34,136.054 1777.34,136.926L1777.34,340.686C1777.34,342.866 1776.25,343.956 1774.07,343.956L1757.39,343.956C1755.21,343.956 1754.12,342.866 1754.12,340.686L1754.12,136.926C1754.12,136.054 1753.68,135.618 1752.81,135.618L1691.33,135.618C1689.14,135.618 1688.06,134.528 1688.06,132.348L1688.06,118.284C1688.06,116.104 1689.14,115.013 1691.33,115.013L1842.76,115.013Z" style="fill-rule:nonzero;"/>
                <path d="M1926.48,346.573C1910.78,346.573 1897.27,342.539 1885.93,334.471C1874.59,326.404 1866.74,315.284 1862.38,301.111C1859.33,291.081 1857.8,277.672 1857.8,260.883C1857.8,244.094 1859.33,230.793 1862.38,220.981C1866.52,207.027 1874.26,196.016 1885.6,187.948C1896.94,179.881 1910.67,175.847 1926.81,175.847C1942.29,175.847 1955.65,179.881 1966.88,187.948C1978.1,196.016 1985.79,206.918 1989.93,220.654C1992.99,230.03 1994.51,243.439 1994.51,260.883C1994.51,278.544 1992.99,291.953 1989.93,301.111C1985.79,315.284 1978.1,326.404 1966.88,334.471C1955.65,342.539 1942.18,346.573 1926.48,346.573ZM1926.48,326.295C1936.95,326.295 1945.89,323.406 1953.3,317.628C1960.72,311.85 1965.73,304.055 1968.35,294.243C1970.31,286.393 1971.29,275.382 1971.29,261.21C1971.29,246.819 1970.42,235.808 1968.67,228.177C1966.06,218.365 1960.99,210.57 1953.47,204.792C1945.94,199.014 1936.84,196.125 1926.16,196.125C1915.47,196.125 1906.42,199.014 1899.01,204.792C1891.6,210.57 1886.58,218.365 1883.97,228.177C1882.22,235.808 1881.35,246.819 1881.35,261.21C1881.35,275.6 1882.22,286.611 1883.97,294.243C1886.36,304.055 1891.32,311.85 1898.85,317.628C1906.37,323.406 1915.58,326.295 1926.48,326.295Z" style="fill-rule:nonzero;"/>
                <path d="M2170.14,219.673C2173.41,230.139 2175.05,243.985 2175.05,261.21C2175.05,278.653 2173.63,292.172 2170.8,301.765C2166.87,315.72 2159.73,326.676 2149.38,334.635C2139.02,342.593 2125.99,346.573 2110.29,346.573C2101.79,346.573 2093.94,344.883 2086.74,341.503C2079.55,338.124 2073.55,333.272 2068.75,326.949C2068.32,326.513 2067.94,326.349 2067.61,326.458C2067.28,326.567 2067.12,326.84 2067.12,327.276L2067.12,404.135C2067.12,406.316 2066.03,407.406 2063.85,407.406L2047.17,407.406C2044.99,407.406 2043.9,406.316 2043.9,404.135L2043.9,181.734C2043.9,179.553 2044.99,178.463 2047.17,178.463L2063.85,178.463C2066.03,178.463 2067.12,179.553 2067.12,181.734L2067.12,195.47C2067.12,195.907 2067.28,196.179 2067.61,196.288C2067.94,196.397 2068.32,196.234 2068.75,195.798C2073.55,189.474 2079.49,184.568 2086.58,181.08C2093.66,177.591 2101.57,175.847 2110.29,175.847C2125.55,175.847 2138.36,179.772 2148.72,187.621C2159.08,195.47 2166.22,206.154 2170.14,219.673ZM2144.3,302.419C2146.7,297.623 2148.5,292.226 2149.7,286.23C2150.9,280.234 2151.5,271.894 2151.5,261.21C2151.5,250.962 2151.07,242.949 2150.19,237.171C2149.32,231.393 2147.79,226.214 2145.61,221.635C2143,213.786 2138.36,207.572 2131.71,202.993C2125.06,198.414 2117.16,196.125 2108,196.125C2099.28,196.125 2091.98,198.414 2086.09,202.993C2080.2,207.572 2075.84,213.677 2073.01,221.308C2071.04,225.669 2069.63,230.793 2068.75,236.68C2067.88,242.567 2067.45,250.744 2067.45,261.21C2067.45,271.676 2067.88,279.907 2068.75,285.903C2069.63,291.899 2071.15,297.186 2073.33,301.765C2075.95,309.179 2080.26,315.12 2086.25,319.59C2092.25,324.06 2099.39,326.295 2107.67,326.295C2116.4,326.295 2123.97,324.114 2130.41,319.754C2136.84,315.393 2141.47,309.615 2144.3,302.419Z" style="fill-rule:nonzero;"/>
                <path d="M2282.98,346.573C2267.28,346.573 2253.76,342.539 2242.42,334.471C2231.09,326.404 2223.24,315.284 2218.88,301.111C2215.82,291.081 2214.3,277.672 2214.3,260.883C2214.3,244.094 2215.82,230.793 2218.88,220.981C2223.02,207.027 2230.76,196.016 2242.1,187.948C2253.43,179.881 2267.17,175.847 2283.31,175.847C2298.79,175.847 2312.14,179.881 2323.37,187.948C2334.6,196.016 2342.29,206.918 2346.43,220.654C2349.48,230.03 2351.01,243.439 2351.01,260.883C2351.01,278.544 2349.48,291.953 2346.43,301.111C2342.29,315.284 2334.6,326.404 2323.37,334.471C2312.14,342.539 2298.68,346.573 2282.98,346.573ZM2282.98,326.295C2293.45,326.295 2302.39,323.406 2309.8,317.628C2317.21,311.85 2322.23,304.055 2324.84,294.243C2326.8,286.393 2327.79,275.382 2327.79,261.21C2327.79,246.819 2326.91,235.808 2325.17,228.177C2322.55,218.365 2317.48,210.57 2309.96,204.792C2302.44,199.014 2293.34,196.125 2282.65,196.125C2271.97,196.125 2262.92,199.014 2255.51,204.792C2248.09,210.57 2243.08,218.365 2240.46,228.177C2238.72,235.808 2237.85,246.819 2237.85,261.21C2237.85,275.6 2238.72,286.611 2240.46,294.243C2242.86,304.055 2247.82,311.85 2255.34,317.628C2262.87,323.406 2272.08,326.295 2282.98,326.295Z" style="fill-rule:nonzero;"/>
                <path d="M2401.38,343.956C2399.2,343.956 2398.11,342.866 2398.11,340.686L2398.11,118.284C2398.11,116.104 2399.2,115.013 2401.38,115.013L2418.05,115.013C2420.24,115.013 2421.33,116.104 2421.33,118.284L2421.33,340.686C2421.33,342.866 2420.24,343.956 2418.05,343.956L2401.38,343.956Z" style="fill-rule:nonzero;"/>
                <path d="M2536.45,346.573C2520.75,346.573 2507.23,342.539 2495.9,334.471C2484.56,326.404 2476.71,315.284 2472.35,301.111C2469.3,291.081 2467.77,277.672 2467.77,260.883C2467.77,244.094 2469.3,230.793 2472.35,220.981C2476.49,207.027 2484.23,196.016 2495.57,187.948C2506.91,179.881 2520.64,175.847 2536.78,175.847C2552.26,175.847 2565.62,179.881 2576.84,187.948C2588.07,196.016 2595.76,206.918 2599.9,220.654C2602.95,230.03 2604.48,243.439 2604.48,260.883C2604.48,278.544 2602.95,291.953 2599.9,301.111C2595.76,315.284 2588.07,326.404 2576.84,334.471C2565.62,342.539 2552.15,346.573 2536.45,346.573ZM2536.45,326.295C2546.92,326.295 2555.86,323.406 2563.27,317.628C2570.68,311.85 2575.7,304.055 2578.32,294.243C2580.28,286.393 2581.26,275.382 2581.26,261.21C2581.26,246.819 2580.39,235.808 2578.64,228.177C2576.03,218.365 2570.96,210.57 2563.43,204.792C2555.91,199.014 2546.81,196.125 2536.12,196.125C2525.44,196.125 2516.39,199.014 2508.98,204.792C2501.57,210.57 2496.55,218.365 2493.93,228.177C2492.19,235.808 2491.32,246.819 2491.32,261.21C2491.32,275.6 2492.19,286.611 2493.93,294.243C2496.33,304.055 2501.29,311.85 2508.82,317.628C2516.34,323.406 2525.55,326.295 2536.45,326.295Z" style="fill-rule:nonzero;"/>
                <path d="M2753.62,181.734C2753.62,179.553 2754.71,178.463 2756.89,178.463L2773.57,178.463C2775.75,178.463 2776.84,179.553 2776.84,181.734L2776.84,338.396C2776.84,362.817 2769.81,380.696 2755.75,392.034C2741.68,403.372 2722.33,409.041 2697.69,409.041C2692.68,409.041 2688.86,408.932 2686.25,408.714C2684.07,408.496 2682.97,407.297 2682.97,405.117L2683.63,390.072C2683.63,388.982 2683.96,388.164 2684.61,387.619C2685.26,387.074 2686.03,386.91 2686.9,387.128L2695.73,387.455C2716.01,387.455 2730.73,383.476 2739.88,375.518C2749.04,367.559 2753.62,354.967 2753.62,337.742L2753.62,325.641C2753.62,325.205 2753.46,324.932 2753.13,324.823C2752.8,324.714 2752.42,324.878 2751.99,325.314C2741.95,338.396 2727.67,344.937 2709.14,344.937C2694.97,344.937 2682.38,341.122 2671.36,333.49C2660.35,325.859 2652.99,315.066 2649.29,301.111C2646.67,292.172 2645.36,278.871 2645.36,261.21C2645.36,251.616 2645.64,243.548 2646.18,237.007C2646.73,230.466 2647.87,224.579 2649.62,219.346C2653.54,206.263 2660.63,195.743 2670.87,187.785C2681.12,179.826 2693.44,175.847 2707.83,175.847C2727.24,175.847 2741.95,182.279 2751.99,195.143C2752.42,195.579 2752.8,195.688 2753.13,195.47C2753.46,195.252 2753.62,194.925 2753.62,194.489L2753.62,181.734ZM2751.99,293.916C2752.64,290.645 2753.08,286.611 2753.29,281.815C2753.51,277.018 2753.62,270.04 2753.62,260.883C2753.62,249.763 2753.51,242.295 2753.29,238.479C2753.08,234.663 2752.53,231.12 2751.66,227.849C2749.91,218.692 2745.61,211.115 2738.74,205.119C2731.87,199.123 2723.2,196.125 2712.74,196.125C2702.49,196.125 2693.82,199.068 2686.74,204.955C2679.65,210.842 2674.69,218.474 2671.86,227.849C2669.68,234.827 2668.58,245.729 2668.58,260.556C2668.58,276.473 2669.68,287.484 2671.86,293.589C2674.03,302.746 2678.78,310.323 2686.08,316.32C2693.39,322.316 2702.27,325.314 2712.74,325.314C2723.42,325.314 2732.2,322.37 2739.07,316.483C2745.93,310.596 2750.24,303.074 2751.99,293.916Z" style="fill-rule:nonzero;"/>
                <path d="M2819.03,409.368C2817.51,409.368 2816.74,408.278 2816.74,406.098L2816.74,393.015C2816.74,390.835 2817.83,389.745 2820.01,389.745L2821.32,389.745C2829.83,389.527 2836.42,388.273 2841.11,385.984C2845.8,383.694 2849.83,379.442 2853.21,373.228C2856.59,367.014 2860.24,357.584 2864.17,344.937C2864.6,344.065 2864.6,343.411 2864.17,342.975L2808.89,182.061L2808.57,180.753C2808.57,179.226 2809.55,178.463 2811.51,178.463L2828.84,178.463C2830.81,178.463 2832.12,179.335 2832.77,181.08L2875.29,313.212C2875.51,313.649 2875.83,313.867 2876.27,313.867C2876.7,313.867 2877.03,313.649 2877.25,313.212L2919.11,181.08C2919.77,179.335 2921.08,178.463 2923.04,178.463L2940.05,178.463C2942.44,178.463 2943.32,179.662 2942.66,182.061L2882.16,358.347C2876.92,372.956 2872.02,383.749 2867.44,390.726C2862.86,397.703 2857.14,402.555 2850.27,405.28C2843.4,408.006 2833.75,409.368 2821.32,409.368L2819.03,409.368Z" style="fill-rule:nonzero;"/>
                <path d="M3162.12,224.579C3161.03,225.233 3161.03,225.887 3162.12,226.541C3173.89,231.338 3182.83,238.424 3188.94,247.8C3195.04,257.176 3198.1,268.514 3198.1,281.815C3198.1,301.438 3191.83,316.701 3179.29,327.603C3166.75,338.505 3150.24,343.956 3129.74,343.956L3050.59,343.956C3048.41,343.956 3047.32,342.866 3047.32,340.686L3047.32,118.284C3047.32,116.104 3048.41,115.013 3050.59,115.013L3127.45,115.013C3148.6,115.013 3165.23,120.246 3177.33,130.712C3189.43,141.178 3195.48,155.896 3195.48,174.866C3195.48,186.858 3192.59,197.051 3186.81,205.446C3181.03,213.84 3172.8,220.218 3162.12,224.579ZM3071.85,135.291C3070.98,135.291 3070.54,135.727 3070.54,136.599L3070.54,215.094C3070.54,215.966 3070.98,216.402 3071.85,216.402L3127.45,216.402C3141.19,216.402 3152.14,212.805 3160.32,205.609C3168.5,198.414 3172.59,188.82 3172.59,176.828C3172.59,164.182 3168.5,154.097 3160.32,146.575C3152.14,139.052 3141.19,135.291 3127.45,135.291L3071.85,135.291ZM3129.74,323.351C3143.48,323.351 3154.43,319.427 3162.61,311.577C3170.79,303.728 3174.88,293.153 3174.88,279.852C3174.88,266.552 3170.68,255.922 3162.28,247.964C3153.89,240.005 3142.61,236.026 3128.43,236.026L3071.85,236.026C3070.98,236.026 3070.54,236.462 3070.54,237.334L3070.54,322.043C3070.54,322.915 3070.98,323.351 3071.85,323.351L3129.74,323.351Z" style="fill-rule:nonzero;"/>
                <path d="M3343.31,181.734C3343.31,179.553 3344.4,178.463 3346.58,178.463L3363.26,178.463C3365.44,178.463 3366.53,179.553 3366.53,181.734L3366.53,340.686C3366.53,342.866 3365.44,343.956 3363.26,343.956L3346.58,343.956C3344.4,343.956 3343.31,342.866 3343.31,340.686L3343.31,326.622C3343.31,326.186 3343.09,325.859 3342.66,325.641C3342.22,325.423 3341.89,325.532 3341.68,325.968C3332.52,339.486 3318.02,346.246 3298.18,346.246C3287.71,346.246 3278.06,344.12 3269.23,339.868C3260.4,335.616 3253.42,329.456 3248.3,321.389C3243.18,313.321 3240.61,303.619 3240.61,292.281L3240.61,181.734C3240.61,179.553 3241.7,178.463 3243.89,178.463L3260.57,178.463C3262.74,178.463 3263.84,179.553 3263.84,181.734L3263.84,285.412C3263.84,297.841 3267.32,307.707 3274.3,315.011C3281.28,322.316 3290.76,325.968 3302.76,325.968C3315.18,325.968 3325.05,322.261 3332.36,314.848C3339.66,307.434 3343.31,297.623 3343.31,285.412L3343.31,181.734Z" style="fill-rule:nonzero;"/>
                <path d="M3434.23,148.374C3429,148.374 3424.64,146.629 3421.15,143.141C3417.66,139.652 3415.92,135.291 3415.92,130.058C3415.92,124.607 3417.66,120.192 3421.15,116.812C3424.64,113.433 3429,111.743 3434.23,111.743C3439.47,111.743 3443.83,113.433 3447.32,116.812C3450.81,120.192 3452.55,124.607 3452.55,130.058C3452.55,135.291 3450.81,139.652 3447.32,143.141C3443.83,146.629 3439.47,148.374 3434.23,148.374ZM3425.08,343.629C3422.9,343.629 3421.81,342.539 3421.81,340.359L3421.81,181.407C3421.81,179.226 3422.9,178.136 3425.08,178.136L3441.76,178.136C3443.94,178.136 3445.03,179.226 3445.03,181.407L3445.03,340.359C3445.03,342.539 3443.94,343.629 3441.76,343.629L3425.08,343.629Z" style="fill-rule:nonzero;"/>
                <path d="M3505.21,343.956C3503.03,343.956 3501.94,342.866 3501.94,340.686L3501.94,118.284C3501.94,116.104 3503.03,115.013 3505.21,115.013L3521.89,115.013C3524.07,115.013 3525.16,116.104 3525.16,118.284L3525.16,340.686C3525.16,342.866 3524.07,343.956 3521.89,343.956L3505.21,343.956Z" style="fill-rule:nonzero;"/>
                <path d="M3679.86,118.284C3679.86,116.104 3680.95,115.013 3683.13,115.013L3699.81,115.013C3701.99,115.013 3703.08,116.104 3703.08,118.284L3703.08,340.686C3703.08,342.866 3701.99,343.956 3699.81,343.956L3683.13,343.956C3680.95,343.956 3679.86,342.866 3679.86,340.686L3679.86,326.949C3679.86,326.513 3679.69,326.24 3679.37,326.131C3679.04,326.022 3678.66,326.186 3678.22,326.622C3673.43,332.945 3667.48,337.851 3660.4,341.34C3653.31,344.828 3645.41,346.573 3636.68,346.573C3621.42,346.573 3608.61,342.648 3598.26,334.798C3587.9,326.949 3580.76,316.265 3576.83,302.746C3573.78,292.935 3572.25,279.089 3572.25,261.21C3572.25,243.112 3573.56,229.594 3576.18,220.654C3580.1,206.7 3587.3,195.743 3597.76,187.785C3608.23,179.826 3621.2,175.847 3636.68,175.847C3645.19,175.847 3653.04,177.537 3660.23,180.916C3667.43,184.296 3673.43,189.147 3678.22,195.47C3678.66,195.907 3679.04,196.07 3679.37,195.961C3679.69,195.852 3679.86,195.579 3679.86,195.143L3679.86,118.284ZM3673.97,301.111C3675.93,296.75 3677.35,291.626 3678.22,285.739C3679.09,279.852 3679.53,271.676 3679.53,261.21C3679.53,250.744 3679.09,242.513 3678.22,236.517C3677.35,230.52 3675.82,225.233 3673.64,220.654C3671.03,213.241 3666.72,207.299 3660.72,202.829C3654.73,198.359 3647.59,196.125 3639.3,196.125C3630.58,196.125 3623.06,198.305 3616.74,202.666C3610.41,207.027 3605.83,212.805 3603,220C3600.38,224.797 3598.47,230.193 3597.27,236.19C3596.08,242.186 3595.48,250.526 3595.48,261.21C3595.48,271.458 3595.91,279.471 3596.78,285.249C3597.66,291.027 3599.18,296.205 3601.36,300.784C3603.98,308.634 3608.61,314.848 3615.26,319.427C3621.91,324.005 3629.82,326.295 3638.97,326.295C3647.7,326.295 3655,324.005 3660.89,319.427C3666.78,314.848 3671.14,308.743 3673.97,301.111Z" style="fill-rule:nonzero;"/>
                <path d="M3882.64,233.41C3883.51,239.515 3883.94,247.146 3883.94,256.304L3883.94,266.77C3883.94,268.95 3882.85,270.04 3880.67,270.04L3775.03,270.04C3774.16,270.04 3773.72,270.476 3773.72,271.349C3774.16,283.341 3774.81,291.081 3775.69,294.57C3778.09,304.382 3783.21,312.122 3791.06,317.791C3798.91,323.46 3808.94,326.295 3821.15,326.295C3830.31,326.295 3838.37,324.224 3845.35,320.081C3852.33,315.938 3857.78,310.051 3861.7,302.419C3863.01,300.457 3864.54,300.021 3866.28,301.111L3879.04,308.634C3880.78,309.724 3881.22,311.25 3880.35,313.212C3874.89,323.678 3866.72,331.909 3855.82,337.906C3844.91,343.902 3832.38,346.9 3818.2,346.9C3802.72,346.682 3789.75,342.975 3779.28,335.78C3768.82,328.584 3761.3,318.554 3756.72,305.69C3752.79,295.224 3750.83,280.179 3750.83,260.556C3750.83,251.398 3750.99,243.93 3751.32,238.152C3751.65,232.374 3752.47,227.195 3753.77,222.617C3757.48,208.444 3764.95,197.106 3776.18,188.602C3787.41,180.099 3800.98,175.847 3816.9,175.847C3836.74,175.847 3852,180.862 3862.68,190.892C3873.37,200.921 3880.02,215.094 3882.64,233.41ZM3816.9,196.125C3806.21,196.125 3797.33,198.905 3790.24,204.465C3783.15,210.025 3778.52,217.493 3776.34,226.868C3775.03,231.447 3774.16,238.861 3773.72,249.108C3773.72,249.981 3774.16,250.417 3775.03,250.417L3859.74,250.417C3860.61,250.417 3861.05,249.981 3861.05,249.108C3860.61,239.297 3859.96,232.319 3859.09,228.177C3856.69,218.365 3851.84,210.57 3844.53,204.792C3837.23,199.014 3828.02,196.125 3816.9,196.125Z" style="fill-rule:nonzero;"/>
                <path d="M3996.78,176.828C4003.97,176.828 4010.19,178.245 4015.42,181.08C4017.17,181.952 4017.82,183.369 4017.38,185.332L4013.79,201.358C4013.13,203.538 4011.72,204.192 4009.54,203.32C4005.83,201.794 4001.58,201.03 3996.78,201.03L3992.53,201.358C3981.19,201.794 3971.81,205.991 3964.4,213.949C3956.99,221.908 3953.28,231.992 3953.28,244.203L3953.28,340.686C3953.28,342.866 3952.19,343.956 3950.01,343.956L3933.33,343.956C3931.15,343.956 3930.06,342.866 3930.06,340.686L3930.06,181.734C3930.06,179.553 3931.15,178.463 3933.33,178.463L3950.01,178.463C3952.19,178.463 3953.28,179.553 3953.28,181.734L3953.28,201.685C3953.28,202.339 3953.44,202.72 3953.77,202.829C3954.1,202.938 3954.37,202.775 3954.59,202.339C3959.17,194.271 3965,188.003 3972.09,183.533C3979.17,179.063 3987.4,176.828 3996.78,176.828Z" style="fill-rule:nonzero;"/>
            </g>
        </g>
    </g>
</svg>
