<svg xmlns="http://www.w3.org/2000/svg" xmlns:xlink="http://www.w3.org/1999/xlink" width="100%" height="100%" version="1.1" viewBox="0 0 564 564" xml:space="preserve" style="fill-rule:evenodd;clip-rule:evenodd;stroke-linejoin:round;stroke-miterlimit:2"><g id="Artboard" transform="matrix(1,0,0,1,-46.1396,-49.1063)"><rect width="563.69" height="563.754" x="46.14" y="49.106" style="fill:none"/><clipPath id="_clip1"><rect width="563.69" height="563.754" x="46.14" y="49.106"/></clipPath><g clip-path="url(#_clip1)"><g><path d="M155.275,342.628L158.164,338.922L376.664,120.422C380.607,117.274 381.21,116.292 386.898,113.758C401.752,107.141 425.971,106.023 443.224,111.225C448.141,112.707 452.432,114.619 455.873,116.86C457.586,117.975 458.848,119.234 460.336,120.422L678.836,338.922C680.766,341.398 682.703,343.9 683.194,346.522C683.93,350.458 681.755,354.334 678.836,358.078L460.336,576.578C456.393,579.726 455.79,580.708 450.102,583.242C435.271,589.849 411.26,591.046 393.776,585.775C388.859,584.293 384.568,582.381 381.127,580.14C379.414,579.025 378.152,577.766 376.664,576.578L158.164,358.078C157.201,356.843 156.004,355.643 155.275,354.372C153.317,350.958 153.806,350.02 153.806,346.522C154.296,345.224 154.785,343.926 155.275,342.628ZM418.5,515.586L585.586,348.5L418.5,181.414L251.414,348.5C307.109,404.195 362.805,459.891 418.5,515.586Z" style="fill:#00f2cb" transform="matrix(3.43273e-17,0.560608,-1.17162,7.17413e-17,736.451,96.4917)"/></g><g><path d="M228.418,394.118L256,451.762L349.67,256L319.355,192.645L394.118,228.418L401.946,244.778C403.028,247.679 404.114,250.611 404.389,253.682C404.802,258.295 403.583,262.835 401.946,267.222L279.453,523.222C277.243,526.91 276.905,528.061 273.716,531.03C265.402,538.77 251.941,540.173 242.14,533.997C239.383,532.261 236.977,530.021 235.048,527.396C234.088,526.089 233.38,524.613 232.547,523.222L153.655,358.345L228.418,394.118ZM117.882,283.582L110.054,267.222C107.875,261.381 106.792,255.105 108.434,249.121C108.843,247.631 109.514,246.225 110.054,244.778L232.547,-11.222C233.38,-12.613 234.088,-14.089 235.048,-15.396C238.907,-20.647 244.753,-24.331 251.156,-25.545C254.336,-26.148 257.608,-25.849 260.844,-25.545C263.967,-24.643 267.121,-23.723 269.86,-21.997C272.617,-20.261 275.023,-18.021 276.952,-15.396C277.912,-14.089 278.62,-12.613 279.453,-11.222L358.345,153.655L283.582,117.882L256,60.238C224.777,125.492 193.553,190.746 162.33,256L192.645,319.355L117.882,283.582Z" style="fill:#0071ab" transform="matrix(1,0,0,1,72.1396,75.1063)"/></g></g></g></svg>