<?xml version="1.0" encoding="UTF-8"?>
<svg xmlns="http://www.w3.org/2000/svg" xmlns:xlink="http://www.w3.org/1999/xlink" version="1.1" width="714px" height="920px" viewBox="-0.5 -0.5 714 920">
  <defs></defs>
  <g>
    <rect x="15" y="366" width="697.5" height="552" fill="none" stroke="none"></rect>
    <path d="M 14.81 366.22 C 14.81 366.22 14.81 366.22 14.81 366.22 M 14.81 366.22 C 14.81 366.22 14.81 366.22 14.81 366.22 M 15.4 374.68 C 18.56 371.92 22.22 369.21 23.28 365.62 M 15.4 374.68 C 16.94 373.02 18.91 370.9 23.28 365.62 M 15.01 384.28 C 18.57 380.63 22.3 374.64 30.76 366.16 M 15.01 384.28 C 19.81 379.17 23.6 373.67 30.76 366.16 M 14.62 393.87 C 20.74 388.79 23.06 380.71 39.22 365.57 M 14.62 393.87 C 22.52 385.11 30.09 376.49 39.22 365.57 M 15.21 402.34 C 25.15 385.36 38.67 371.26 46.7 366.11 M 15.21 402.34 C 22.79 393 27.64 385.42 46.7 366.11 M 14.82 411.94 C 24.51 400.02 34.53 388.1 55.17 365.52 M 14.82 411.94 C 28.8 393.57 46.15 378.81 55.17 365.52 M 15.41 420.4 C 31.2 396.33 54.45 378.65 62.65 366.06 M 15.41 420.4 C 29.91 404.36 43.82 386.55 62.65 366.06 M 15.02 430 C 29.81 413.97 43.34 396.95 71.11 365.47 M 15.02 430 C 28.68 413.7 40.55 399.15 71.11 365.47 M 14.63 439.59 C 37.51 409.6 61.35 383.59 78.59 366.01 M 14.63 439.59 C 38.49 410.44 66.26 380.42 78.59 366.01 M 15.22 448.06 C 32.99 427.54 47.79 409.35 86.07 366.55 M 15.22 448.06 C 42.83 415.08 71.41 384.03 86.07 366.55 M 14.83 457.65 C 47.05 420.29 76.9 383.89 94.54 365.96 M 14.83 457.65 C 41.69 425.93 67.68 395.09 94.54 365.96 M 15.42 466.12 C 47.75 425.33 81.99 392.04 102.02 366.5 M 15.42 466.12 C 37.65 440.37 59 415.56 102.02 366.5 M 15.03 475.72 C 33.14 451.72 54.45 432.32 110.48 365.91 M 15.03 475.72 C 49.15 437.21 82.37 399.07 110.48 365.91 M 14.63 485.31 C 43.88 447.31 75.75 412.56 117.96 366.45 M 14.63 485.31 C 39.02 457.87 64.87 428.11 117.96 366.45 M 15.23 493.78 C 52.56 450.72 92.68 402.21 126.43 365.85 M 15.23 493.78 C 40.38 461.83 68.94 430.77 126.43 365.85 M 14.83 503.37 C 52.18 456.22 93.47 413.52 133.91 366.39 M 14.83 503.37 C 55.8 458.58 96.72 410.3 133.91 366.39 M 15.43 511.84 C 64.5 453.8 115.39 401.32 142.37 365.8 M 15.43 511.84 C 60.32 460.08 108.55 408.07 142.37 365.8 M 15.03 521.44 C 46.23 481.76 82.73 442.13 149.85 366.34 M 15.03 521.44 C 56 475.72 96.7 428.31 149.85 366.34 M 14.64 531.03 C 60.62 480.32 106.85 427.09 158.32 365.75 M 14.64 531.03 C 53.37 486.13 93.81 441.93 158.32 365.75 M 15.23 539.5 C 56.17 490.62 103.72 443.02 165.8 366.29 M 15.23 539.5 C 54.08 491.95 91.41 447.57 165.8 366.29 M 14.84 549.09 C 75.73 480.39 135.08 409.95 174.26 365.7 M 14.84 549.09 C 62.99 494.93 106.78 442.63 174.26 365.7 M 15.43 557.56 C 58.9 510.31 96.26 460.16 181.74 366.24 M 15.43 557.56 C 73.62 494.13 126.87 429.76 181.74 366.24 M 15.04 567.15 C 50.03 529.53 87.92 486.12 190.21 365.65 M 15.04 567.15 C 67.31 504.24 123.23 441.21 190.21 365.65 M 14.65 576.75 C 56.04 531.25 97.67 483.03 197.69 366.19 M 14.65 576.75 C 85.41 494.55 159.61 409.8 197.69 366.19 M 15.24 585.22 C 65.7 529.97 118.14 469.4 206.15 365.6 M 15.24 585.22 C 53.04 541.13 91.83 497.42 206.15 365.6 M 14.85 594.81 C 70.8 531.02 126.89 466.93 213.63 366.14 M 14.85 594.81 C 78.26 522.04 138.82 451.59 213.63 366.14 M 15.44 603.28 C 71.28 539.47 126.44 473.38 222.1 365.54 M 15.44 603.28 C 60.69 548.1 108.25 497.36 222.1 365.54 M 15.05 612.87 C 85.18 528.94 154.65 450.61 229.58 366.08 M 15.05 612.87 C 81.63 536.44 150.1 458.01 229.58 366.08 M 14.66 622.47 C 90.12 537.68 163.97 451.44 238.04 365.49 M 14.66 622.47 C 100.64 522.72 186.7 422.75 238.04 365.49 M 15.25 630.94 C 90.44 546.52 164.98 465.06 245.52 366.03 M 15.25 630.94 C 64.49 575.6 112.87 519.81 245.52 366.03 M 14.86 640.53 C 109.42 532.48 205.07 420.61 253.99 365.44 M 14.86 640.53 C 84.27 562.37 152.27 483.89 253.99 365.44 M 15.45 649 C 111.73 538.24 206.51 425.98 261.47 365.98 M 15.45 649 C 109.36 538.56 203.03 429.27 261.47 365.98 M 15.06 658.59 C 76.5 587.53 137.28 513.2 268.95 366.52 M 15.06 658.59 C 92.85 570.31 167.15 483.01 268.95 366.52 M 14.66 668.19 C 103.26 567.33 189.69 463.28 277.41 365.93 M 14.66 668.19 C 121.86 548.53 225.33 428.23 277.41 365.93 M 15.25 676.65 C 87.34 592.66 156.94 508.84 284.9 366.47 M 15.25 676.65 C 116.83 560.54 216.49 445.57 284.9 366.47 M 14.86 686.25 C 116.85 569.12 220.41 449.88 293.36 365.88 M 14.86 686.25 C 120.2 566.48 225.35 443.58 293.36 365.88 M 15.45 694.72 C 97.15 595.39 178.96 501.46 300.84 366.42 M 15.45 694.72 C 75.7 622.99 138.97 551.38 300.84 366.42 M 15.06 704.31 C 109.67 593.64 200.42 488.52 309.3 365.83 M 15.06 704.31 C 86.4 622.33 158.37 538.42 309.3 365.83 M 14.67 713.91 C 126.58 590.37 231.97 466.59 316.79 366.37 M 14.67 713.91 C 118.7 595.24 224.33 474.39 316.79 366.37 M 15.26 722.37 C 94.49 634.6 168.84 544.78 325.25 365.77 M 15.26 722.37 C 101.7 624.58 188.89 525.46 325.25 365.77 M 14.87 731.97 C 127.37 604.73 235.55 478.37 332.73 366.31 M 14.87 731.97 C 86.18 652.6 156.48 571.95 332.73 366.31 M 15.46 740.43 C 91.53 650.21 170.2 561.2 341.2 365.72 M 15.46 740.43 C 125.45 614.29 232.69 490.81 341.2 365.72 M 15.07 750.03 C 134.48 617.03 247.39 483.97 348.68 366.26 M 15.07 750.03 C 109.4 637.86 204.94 525.95 348.68 366.26 M 14.68 759.63 C 83.31 679.57 153.52 597.83 357.14 365.67 M 14.68 759.63 C 100.12 662.39 184.11 566.13 357.14 365.67 M 15.27 768.09 C 115.24 651.03 214.73 535.26 364.62 366.21 M 15.27 768.09 C 146.21 618.76 275.22 468.53 364.62 366.21 M 14.88 777.69 C 117.1 664.53 215.16 548.83 373.09 365.62 M 14.88 777.69 C 96.69 684.72 176.36 592.88 373.09 365.62 M 15.47 786.15 C 131.29 654.44 244.29 526.91 380.57 366.16 M 15.47 786.15 C 112.13 673.3 210 561.34 380.57 366.16 M 15.08 795.75 C 96.74 700.34 180.24 604.43 389.03 365.57 M 15.08 795.75 C 110.16 685.12 204.75 576.83 389.03 365.57 M 14.68 805.35 C 166.06 632.17 315.56 457.8 396.51 366.11 M 14.68 805.35 C 144.52 654.06 276.62 501.41 396.51 366.11 M 15.28 813.81 C 97.21 718.82 180.52 622.34 404.98 365.51 M 15.28 813.81 C 127.42 684.58 241.5 553.82 404.98 365.51 M 14.88 823.41 C 143.55 671.75 272.52 521.89 412.46 366.05 M 14.88 823.41 C 156.28 661.8 298.04 498.86 412.46 366.05 M 15.48 831.87 C 126.58 704.76 236.19 577.94 420.92 365.46 M 15.48 831.87 C 126.88 704.76 237.81 576.79 420.92 365.46 M 15.08 841.47 C 156.84 680.65 298.74 519.34 428.4 366 M 15.08 841.47 C 101.75 737.4 190.45 636.21 428.4 366 M 14.69 851.07 C 107.51 742.2 204.86 633.42 435.88 366.54 M 14.69 851.07 C 145.01 700.49 275.79 550.06 435.88 366.54 M 15.28 859.53 C 135.93 724.05 254.34 588.13 444.35 365.95 M 15.28 859.53 C 108.83 749.42 204.36 639.78 444.35 365.95 M 14.89 869.13 C 162.81 698.07 307.35 528.97 451.83 366.49 M 14.89 869.13 C 136.23 728.71 260.64 586.9 451.83 366.49 M 15.48 877.59 C 108.72 770.79 200.91 662.68 460.29 365.9 M 15.48 877.59 C 127.62 749.09 238.73 621.13 460.29 365.9 M 15.09 887.19 C 147.61 737.94 277.48 587.18 467.77 366.44 M 15.09 887.19 C 128.22 757.3 241.51 625.82 467.77 366.44 M 14.7 896.79 C 124.58 773.22 231.3 647.95 476.24 365.85 M 14.7 896.79 C 174.6 717.2 331.96 535.71 476.24 365.85 M 15.29 905.25 C 200.44 694.66 386.61 483.69 483.72 366.39 M 15.29 905.25 C 134.61 771.22 251.28 637.32 483.72 366.39 M 14.9 914.85 C 144.94 764.07 278 612.85 492.18 365.8 M 14.9 914.85 C 170.67 739.78 324.31 562.56 492.18 365.8 M 17.46 921.05 C 202.01 710.19 387.1 496.72 499.66 366.34 M 17.46 921.05 C 154.41 761.35 291.94 601.68 499.66 366.34 M 25.92 920.46 C 162.36 765.17 296.57 610.06 508.13 365.74 M 25.92 920.46 C 213.57 706.89 399.05 491.79 508.13 365.74 M 33.4 921 C 137.41 797.87 243.68 674.62 515.61 366.28 M 33.4 921 C 201.67 731.16 367.53 539.16 515.61 366.28 M 41.87 920.4 C 147.08 799.94 253.71 676.19 524.07 365.69 M 41.87 920.4 C 188.83 750.48 335.64 581.36 524.07 365.69 M 49.35 920.94 C 189.63 762.42 329.15 600.94 531.55 366.23 M 49.35 920.94 C 237.33 706.97 423.19 493.06 531.55 366.23 M 57.81 920.35 C 196.59 758.52 337.3 596.46 540.02 365.64 M 57.81 920.35 C 166.42 794.23 275.59 668.83 540.02 365.64 M 65.29 920.89 C 256.65 703.21 446.16 481.68 547.5 366.18 M 65.29 920.89 C 232.05 731 398.29 541.69 547.5 366.18 M 73.76 920.3 C 226.79 743.76 381.41 565.95 555.96 365.59 M 73.76 920.3 C 204.7 768.49 335.11 617.87 555.96 365.59 M 81.24 920.84 C 262.62 711.07 445.59 500.42 563.44 366.13 M 81.24 920.84 C 239.17 740.44 394.28 561.21 563.44 366.13 M 89.7 920.25 C 255.17 727.03 422.75 533.37 571.91 365.54 M 89.7 920.25 C 249.71 734.03 410.9 548.62 571.91 365.54 M 97.18 920.79 C 240.84 755.33 383.44 589.43 579.39 366.08 M 97.18 920.79 C 200.63 803.15 302.71 684.55 579.39 366.08 M 105.65 920.2 C 229.37 778.08 348.77 640.43 587.85 365.49 M 105.65 920.2 C 247.64 760.29 387.72 598.76 587.85 365.49 M 113.13 920.74 C 227.29 790.81 340.51 660.1 595.33 366.03 M 113.13 920.74 C 245.91 770.06 375.96 620.94 595.33 366.03 M 121.59 920.15 C 280.54 740.11 437.53 559.4 602.81 366.57 M 121.59 920.15 C 307.5 709.76 491.08 497.68 602.81 366.57 M 129.07 920.69 C 275.29 754.7 421.93 584.83 611.28 365.97 M 129.07 920.69 C 288.61 737.19 446.89 554.19 611.28 365.97 M 137.54 920.09 C 280.57 754.38 424.09 590.91 618.76 366.51 M 137.54 920.09 C 250.34 790.21 363.49 660.3 618.76 366.51 M 145.02 920.63 C 257.21 790.05 368.59 659.89 627.22 365.92 M 145.02 920.63 C 335.56 698.86 528.47 478.09 627.22 365.92 M 153.48 920.04 C 300.86 748.53 446.86 579.98 634.7 366.46 M 153.48 920.04 C 267.71 787.21 385.03 653.74 634.7 366.46 M 160.97 920.58 C 349.57 703.57 536.88 486.02 643.17 365.87 M 160.97 920.58 C 285.91 774.27 412.47 628.61 643.17 365.87 M 169.43 919.99 C 326.21 738.57 486.24 556.54 650.65 366.41 M 169.43 919.99 C 350.26 712.07 531.94 503.29 650.65 366.41 M 176.91 920.53 C 348.7 724.62 519.33 526.5 659.11 365.82 M 176.91 920.53 C 314.42 766.75 448.55 611.91 659.11 365.82 M 184.39 921.07 C 361.02 718.13 534.53 516.43 666.59 366.36 M 184.39 921.07 C 369.69 708.49 556.09 493.26 666.59 366.36 M 192.86 920.48 C 354.68 729.7 518.57 542.57 675.06 365.77 M 192.86 920.48 C 378.72 707.72 564.31 494.23 675.06 365.77 M 200.34 921.02 C 312.83 796.65 421.81 667.04 682.54 366.31 M 200.34 921.02 C 387.93 705.56 576.43 489.54 682.54 366.31 M 208.8 920.43 C 390.61 714.23 573.36 503.98 691 365.72 M 208.8 920.43 C 345.17 761.78 483.83 602.3 691 365.72 M 216.28 920.97 C 398.48 711.31 579.85 503.18 698.48 366.26 M 216.28 920.97 C 353.8 761.97 491.51 604.8 698.48 366.26 M 224.75 920.38 C 381.61 740.46 540.12 559.32 706.95 365.66 M 224.75 920.38 C 355.71 772.16 484.03 622.53 706.95 365.66 M 232.23 920.92 C 362.83 765.57 495.15 612.45 713.45 367.34 M 232.23 920.92 C 396.8 729.69 561.97 538.99 713.45 367.34 M 240.69 920.32 C 370.44 769.45 501.47 619.05 714.04 375.8 M 240.69 920.32 C 423.54 709.99 607.38 497.99 714.04 375.8 M 248.17 920.86 C 351.07 800.7 457.27 680.77 713.65 385.4 M 248.17 920.86 C 343.61 809.28 442.07 697.44 713.65 385.4 M 256.64 920.27 C 409.42 745.33 560.29 571.37 713.25 394.99 M 256.64 920.27 C 388.83 772.14 517.37 623.29 713.25 394.99 M 264.12 920.81 C 419.61 740.1 577.18 560.51 713.85 403.46 M 264.12 920.81 C 404.62 759.41 544.21 599.89 713.85 403.46 M 272.58 920.22 C 374.67 805.36 474.87 689.36 713.45 413.06 M 272.58 920.22 C 433.65 737.49 591.75 553.69 713.45 413.06 M 280.06 920.76 C 448.95 728.61 615.98 535.94 714.04 421.52 M 280.06 920.76 C 381.7 803.14 484.87 685.36 714.04 421.52 M 288.53 920.17 C 429.23 757.64 570.18 595.18 713.65 431.12 M 288.53 920.17 C 374.1 822.22 460 721.37 713.65 431.12 M 296.01 920.71 C 426.18 766.19 560.24 614.93 713.26 440.71 M 296.01 920.71 C 444.77 746.71 596.29 573.23 713.26 440.71 M 304.47 920.12 C 393.12 819.55 482.4 717.12 713.85 449.18 M 304.47 920.12 C 455.25 742.77 609.39 567.88 713.85 449.18 M 311.95 920.66 C 446.07 763.12 582.52 604.65 713.46 458.77 M 311.95 920.66 C 404.43 814.42 498.61 707 713.46 458.77 M 320.42 920.06 C 438.35 782.81 556.49 644.85 714.05 467.24 M 320.42 920.06 C 399.21 829.01 478.78 738.49 714.05 467.24 M 327.9 920.6 C 429.31 802.49 535.36 680.13 713.66 476.84 M 327.9 920.6 C 468.08 756.78 611.26 593.19 713.66 476.84 M 336.36 920.01 C 419.47 827.86 501.41 733.29 713.27 486.43 M 336.36 920.01 C 487.36 747.64 636.99 576.14 713.27 486.43 M 343.84 920.55 C 479.11 763.47 612.78 608.87 713.86 494.9 M 343.84 920.55 C 444.46 806.81 544.75 691.15 713.86 494.9 M 351.32 921.09 C 435.51 830.61 517.44 734.75 713.47 504.49 M 351.32 921.09 C 443.76 819.57 533.44 716.1 713.47 504.49 M 359.79 920.5 C 460.55 806.11 561.81 691.18 714.06 512.96 M 359.79 920.5 C 432.67 834.25 506.36 749.88 714.06 512.96 M 367.27 921.04 C 437.34 838.37 508.88 753.34 713.67 522.55 M 367.27 921.04 C 437.84 838.01 508.95 755.82 713.67 522.55 M 375.73 920.45 C 489.7 791.84 601.52 665.52 713.27 532.15 M 375.73 920.45 C 451.69 833.66 527.95 747.29 713.27 532.15 M 383.21 920.99 C 478.54 819 569.02 711.63 713.87 540.62 M 383.21 920.99 C 488.31 802.24 593.32 682.68 713.87 540.62 M 391.68 920.4 C 464.12 834.78 540.65 748.94 713.47 550.21 M 391.68 920.4 C 502.7 789.64 614.96 663.2 713.47 550.21 M 399.16 920.94 C 512.98 790.14 629.56 657.39 714.07 558.68 M 399.16 920.94 C 517.38 785.1 636.74 649.67 714.07 558.68 M 407.62 920.35 C 504.11 807.54 606.88 693.82 713.67 568.27 M 407.62 920.35 C 520.76 790.88 634 662.78 713.67 568.27 M 415.1 920.89 C 484.93 841.92 555.74 758.22 713.28 577.87 M 415.1 920.89 C 524.48 792.47 636.38 665.29 713.28 577.87 M 423.57 920.29 C 537.48 789.86 650.38 660.24 713.87 586.34 M 423.57 920.29 C 499.29 835.15 575.86 748.96 713.87 586.34 M 431.05 920.83 C 507.18 833.98 586.93 746.38 713.48 595.93 M 431.05 920.83 C 508.71 835.96 582.05 749.24 713.48 595.93 M 439.51 920.24 C 498.48 846.12 562.5 776.83 714.07 604.4 M 439.51 920.24 C 538.69 806.47 638.61 690.59 714.07 604.4 M 446.99 920.78 C 523.42 831.66 601.56 743.58 713.68 613.99 M 446.99 920.78 C 550.69 802.1 655.74 679.35 713.68 613.99 M 455.46 920.19 C 518.95 844.52 579.52 771.02 713.29 623.59 M 455.46 920.19 C 508.88 855.97 565.75 794.76 713.29 623.59 M 462.94 920.73 C 536.96 834.39 615.29 744.24 713.88 632.05 M 462.94 920.73 C 527.02 844.04 591.84 769.09 713.88 632.05 M 471.4 920.14 C 546.53 834.44 620.13 751.51 713.49 641.65 M 471.4 920.14 C 543.84 838.25 616.29 754.45 713.49 641.65 M 478.88 920.68 C 573.43 814.6 665.12 707.42 714.08 650.12 M 478.88 920.68 C 559.99 824.66 642.04 730.62 714.08 650.12 M 487.35 920.09 C 553.3 850.09 613.96 780.48 713.69 659.71 M 487.35 920.09 C 551.73 846.25 615.88 769.82 713.69 659.71 M 494.83 920.63 C 543.93 858.87 597.31 800.72 713.3 669.31 M 494.83 920.63 C 568.84 839.13 638.44 759.04 713.3 669.31 M 503.29 920.04 C 556.85 860.52 606.02 800.47 713.89 677.77 M 503.29 920.04 C 549.67 864.97 596.97 811.33 713.89 677.77 M 510.77 920.58 C 580.63 840.42 652.67 761.19 713.5 687.37 M 510.77 920.58 C 555.99 869.03 597.74 816.92 713.5 687.37 M 519.24 919.98 C 588.26 843.21 653.72 763.95 714.09 695.84 M 519.24 919.98 C 585.04 841.94 650.7 762.5 714.09 695.84 M 526.72 920.52 C 573.31 865.97 618.42 812.63 713.7 705.43 M 526.72 920.52 C 570.67 872.17 612.89 819.54 713.7 705.43 M 534.2 921.06 C 588.56 856.95 650.96 791.95 713.3 715.03 M 534.2 921.06 C 574.2 872.23 617.45 823.68 713.3 715.03 M 542.66 920.47 C 599.58 859.84 652.09 799.94 713.9 723.49 M 542.66 920.47 C 605.63 846.42 669.86 777.25 713.9 723.49 M 550.14 921.01 C 606.34 854.45 665.42 788.52 713.5 733.09 M 550.14 921.01 C 592 871.47 635.77 821.19 713.5 733.09 M 558.61 920.42 C 611.76 859.77 662.68 804.79 714.1 741.55 M 558.61 920.42 C 614.92 858.9 672.06 792.79 714.1 741.55 M 566.09 920.96 C 595.57 881.83 628.25 845.46 713.7 751.15 M 566.09 920.96 C 623.39 856.53 680.28 790.41 713.7 751.15 M 574.55 920.37 C 611.39 875.41 652.88 829.1 713.31 760.75 M 574.55 920.37 C 622.71 864.18 675.51 806.19 713.31 760.75 M 582.04 920.91 C 628.57 867.23 672.16 815.04 713.9 769.21 M 582.04 920.91 C 623.14 873.34 666.12 826.06 713.9 769.21 M 590.5 920.32 C 617.8 887.87 646.53 854.39 713.51 778.81 M 590.5 920.32 C 625.39 882.53 658.28 845.62 713.51 778.81 M 597.98 920.86 C 619.31 894.7 643.67 866.29 714.1 787.27 M 597.98 920.86 C 638.82 874.08 682.54 826.12 714.1 787.27 M 606.44 920.27 C 628.32 893.79 657.01 866.25 713.71 796.87 M 606.44 920.27 C 649.22 870.98 688.2 824.42 713.71 796.87 M 613.93 920.81 C 636.46 894.19 663.5 868.03 713.32 806.47 M 613.93 920.81 C 651 878.11 687.08 835.73 713.32 806.47 M 622.39 920.21 C 655.58 880.39 687.83 848.21 713.91 814.93 M 622.39 920.21 C 652.81 885.16 684.71 846.43 713.91 814.93 M 629.87 920.75 C 661.95 884.15 693.76 849.06 713.52 824.53 M 629.87 920.75 C 648.36 899.22 667.67 880.14 713.52 824.53 M 638.34 920.16 C 665.74 894.9 686.29 864.59 714.11 832.99 M 638.34 920.16 C 669.88 884.88 698.43 850.9 714.11 832.99 M 645.82 920.7 C 666.08 899.58 685.12 873.51 713.72 842.59 M 645.82 920.7 C 667.56 896.28 686.76 871.87 713.72 842.59 M 654.28 920.11 C 671.02 899.05 689.25 880.18 713.33 852.19 M 654.28 920.11 C 675.18 897.23 695.41 873.02 713.33 852.19 M 661.76 920.65 C 682.67 900.33 702.02 878.49 713.92 860.65 M 661.76 920.65 C 674.26 907.8 687.66 891.74 713.92 860.65 M 670.23 920.06 C 688.97 899.02 702.27 881.87 713.53 870.25 M 670.23 920.06 C 687.43 900.69 703.3 883.28 713.53 870.25 M 677.71 920.6 C 694.21 902.36 708.78 888.49 714.12 878.71 M 677.71 920.6 C 691.13 903.58 706.28 887.16 714.12 878.71 M 686.17 920.01 C 694.17 909.62 708.59 895.69 713.73 888.31 M 686.17 920.01 C 694.1 910.52 699.97 905.21 713.73 888.31 M 693.65 920.55 C 701.42 913.24 706.64 904.08 713.33 897.91 M 693.65 920.55 C 699.97 913.26 705.94 906.23 713.33 897.91 M 701.13 921.09 C 704.88 918.39 709.57 913.36 713.92 906.37 M 701.13 921.09 C 704.96 915.84 708.44 912.49 713.92 906.37 M 709.6 920.5 C 711.36 919.3 712.57 916.86 713.53 915.97 M 709.6 920.5 C 710.6 919 711.62 918.23 713.53 915.97" fill="none" stroke="#f5f5f5" stroke-width="0.75" stroke-linejoin="round" stroke-linecap="round" stroke-miterlimit="10"></path>
    <path d="M 15 366 C 232.61 365.72 449 366.4 712.5 366 M 15 366 C 219.45 368 424.32 368.48 712.5 366 M 712.5 366 C 713.55 489.81 713.83 612.37 712.5 918 M 712.5 366 C 712.29 547.41 712.65 731.19 712.5 918 M 712.5 918 C 471.51 918.61 233.25 918.17 15 918 M 712.5 918 C 480.99 916.66 248.01 916.47 15 918 M 15 918 C 10.69 789.08 10.89 661.15 15 366 M 15 918 C 11.83 740.58 12.81 563.82 15 366" fill="none" stroke="#666666" stroke-width="1.5" stroke-linejoin="round" stroke-linecap="round" stroke-miterlimit="10"></path>
    <rect x="0" y="351" width="697.5" height="552" fill="none" stroke="none"></rect>
    <path d="M -2.21 352.86 L 695.91 351.71 L 695.81 902.82 L 1.84 900.51" fill="rgb(255, 255, 255)" stroke="none"></path>
    <path d="M 0 351 C 239.5 350.67 480.23 348.74 697.5 351 M 0 351 C 140.38 353.11 281.11 353.16 697.5 351 M 697.5 351 C 693.96 466.24 693.61 577.21 697.5 903 M 697.5 351 C 696.85 471.27 696.23 591.94 697.5 903 M 697.5 903 C 429.72 901.03 164.9 902.45 0 903 M 697.5 903 C 530.19 905.5 361.57 904.47 0 903 M 0 903 C -2.49 759.57 -3.23 614.42 0 351 M 0 903 C 2.16 732.58 2.21 562.27 0 351" fill="none" stroke="rgb(0, 0, 0)" stroke-width="1.5" stroke-linejoin="round" stroke-linecap="round" stroke-miterlimit="10"></path>
    <g transform="translate(-0.5 -0.5)scale(1.5)">
      <switch>
        <text x="233" y="599" fill="rgb(0, 0, 0)" font-family="Helvetica" font-size="12px" text-anchor="middle" font-weight="bold">LTB Hypervisor Node - Ubuntu</text>
      </switch>
    </g>
    <rect x="387" y="595.5" width="228" height="219.75" fill="none" stroke="none"></rect>
    <path d="M 386.58 595.98 C 386.58 595.98 386.58 595.98 386.58 595.98 M 386.58 595.98 C 386.58 595.98 386.58 595.98 386.58 595.98 M 387.18 604.44 C 388.91 601.99 391.6 600.55 395.05 595.39 M 387.18 604.44 C 390 601.47 392.52 599.2 395.05 595.39 M 386.78 614.04 C 393.05 608.17 399.05 601.25 402.53 595.93 M 386.78 614.04 C 390.75 611.07 392.84 606.38 402.53 595.93 M 387.38 622.5 C 395.29 612.77 403.46 603.89 410.99 595.34 M 387.38 622.5 C 393.63 615.52 398.27 609.99 410.99 595.34 M 386.98 632.1 C 396.2 621.46 411.49 604.42 418.47 595.88 M 386.98 632.1 C 394.28 624.45 401.18 615.71 418.47 595.88 M 386.59 641.7 C 397.44 625.97 411.27 612.09 426.94 595.28 M 386.59 641.7 C 396.78 631.84 404.31 622.46 426.94 595.28 M 387.18 650.16 C 404.93 633.37 418.61 615.15 434.42 595.82 M 387.18 650.16 C 401.32 634.57 411.19 621.19 434.42 595.82 M 386.79 659.76 C 405.21 635.15 431.3 611.62 442.88 595.23 M 386.79 659.76 C 401.14 644.88 414.33 628.23 442.88 595.23 M 387.38 668.22 C 411.84 639.27 434.5 615.86 450.36 595.77 M 387.38 668.22 C 406.61 643.16 428.45 620.32 450.36 595.77 M 386.99 677.82 C 410.38 652.46 430.45 626.61 458.83 595.18 M 386.99 677.82 C 407.11 653.16 427.71 630.92 458.83 595.18 M 386.6 687.42 C 419.91 651.99 452.44 614.9 466.31 595.72 M 386.6 687.42 C 401.74 669.46 419.87 648.71 466.31 595.72 M 387.19 695.88 C 418.98 664 446.98 630.12 474.77 595.13 M 387.19 695.88 C 412.61 665.67 437.64 637.23 474.77 595.13 M 386.8 705.48 C 407.54 685.11 425 658.13 482.25 595.67 M 386.8 705.48 C 418.66 666.11 454.37 627.15 482.25 595.67 M 387.39 713.94 C 408.97 688.66 436.15 657.93 490.72 595.08 M 387.39 713.94 C 410.29 687.77 433.89 660.49 490.72 595.08 M 387 723.54 C 430.85 673.98 478.11 624.15 498.2 595.62 M 387 723.54 C 412.06 695.27 437.43 666.53 498.2 595.62 M 386.61 733.14 C 411.87 701.81 440.81 674.33 506.66 595.02 M 386.61 733.14 C 434.8 680.14 482.96 625.76 506.66 595.02 M 387.2 741.6 C 415.83 708.84 449.16 670.31 514.14 595.57 M 387.2 741.6 C 431.7 690.77 477.78 637.72 514.14 595.57 M 386.81 751.2 C 420 708.29 456.12 666.97 522.61 594.97 M 386.81 751.2 C 433.58 697.07 481.51 644.16 522.61 594.97 M 387.4 759.66 C 440.89 698.72 494.1 631.76 530.09 595.51 M 387.4 759.66 C 424.64 714.89 463.81 668.4 530.09 595.51 M 387 769.26 C 441.89 707.27 492.42 642.37 537.57 596.05 M 387 769.26 C 439.59 708.54 493.88 650.87 537.57 596.05 M 386.61 778.86 C 418.32 744.64 450.54 706.69 546.03 595.46 M 386.61 778.86 C 446.68 707.37 505.57 637.13 546.03 595.46 M 387.2 787.32 C 423.21 746.76 461.73 697.69 553.52 596 M 387.2 787.32 C 439.96 726.79 495.26 664.02 553.52 596 M 386.81 796.92 C 424.35 753.49 463.42 706.87 561.98 595.41 M 386.81 796.92 C 432.71 744.56 480.16 688.76 561.98 595.41 M 387.4 805.38 C 436.9 746.42 485.71 692.58 569.46 595.95 M 387.4 805.38 C 447.77 737.65 507.44 669.91 569.46 595.95 M 387.01 814.98 C 443.49 752.43 499.16 684.22 577.93 595.36 M 387.01 814.98 C 429.51 764.96 472.96 714.93 577.93 595.36 M 391.54 818.92 C 463.56 737.69 532.44 652.05 585.41 595.9 M 391.54 818.92 C 436.29 769.7 478.76 717.78 585.41 595.9 M 399.02 819.46 C 440.8 767.23 484.33 718.04 593.87 595.31 M 399.02 819.46 C 461.17 749.28 521.34 679.39 593.87 595.31 M 407.49 818.86 C 466.96 751.37 526.76 680.87 601.35 595.85 M 407.49 818.86 C 462.12 759.44 512.09 699.04 601.35 595.85 M 414.97 819.4 C 480.67 743.77 539.46 674.21 609.82 595.25 M 414.97 819.4 C 473 753.15 527.42 689.15 609.82 595.25 M 423.43 818.81 C 485.71 742.63 556.18 667.75 616.31 596.93 M 423.43 818.81 C 478.6 755.26 532.82 691.99 616.31 596.93 M 430.91 819.35 C 490.81 754.92 540.4 689.92 616.9 605.39 M 430.91 819.35 C 484.7 759.87 534.93 700.99 616.9 605.39 M 439.38 818.76 C 483.98 767.75 526.72 720.78 616.51 614.99 M 439.38 818.76 C 490.79 758.75 542.1 698.23 616.51 614.99 M 446.86 819.3 C 502.21 755.65 558.04 690.14 616.12 624.58 M 446.86 819.3 C 501.47 758.37 556.88 693.76 616.12 624.58 M 455.32 818.71 C 495.58 774.64 531.98 729.18 616.71 633.05 M 455.32 818.71 C 506.57 761.6 554.97 705.12 616.71 633.05 M 462.8 819.25 C 524.25 749.26 585.51 680.32 616.32 642.65 M 462.8 819.25 C 499.7 780.86 531.98 739.97 616.32 642.65 M 471.27 818.66 C 515.74 768.51 554.4 723.11 616.91 651.11 M 471.27 818.66 C 510.99 771.06 553.81 721.75 616.91 651.11 M 478.75 819.2 C 527.14 762.06 579.41 706.86 616.52 660.71 M 478.75 819.2 C 516.55 775.25 556.1 732.05 616.52 660.71 M 487.21 818.6 C 538.76 760.97 588.43 704.73 616.13 670.3 M 487.21 818.6 C 519.69 782.54 551.42 744.5 616.13 670.3 M 494.69 819.14 C 530.33 779.41 560.82 737.14 616.72 678.77 M 494.69 819.14 C 538.32 769.31 583.56 716.32 616.72 678.77 M 503.16 818.55 C 534.43 782.26 562.57 748.71 616.33 688.37 M 503.16 818.55 C 541.28 776.8 577.88 731.4 616.33 688.37 M 510.64 819.09 C 545.89 780.93 574.95 742.4 616.92 696.83 M 510.64 819.09 C 535.88 788.39 565.84 757.75 616.92 696.83 M 518.12 819.63 C 552.57 781.03 584 747.76 616.53 706.43 M 518.12 819.63 C 547.3 785.51 577.82 749.45 616.53 706.43 M 526.58 819.04 C 560.94 782.64 591.02 743.6 616.13 716.02 M 526.58 819.04 C 552.95 789.34 581.89 758.18 616.13 716.02 M 534.06 819.58 C 556.87 796.22 573.5 774.66 616.73 724.49 M 534.06 819.58 C 555.63 794.06 579.5 769.95 616.73 724.49 M 542.53 818.99 C 566.56 795.99 586.8 771 616.33 734.08 M 542.53 818.99 C 569.13 788.49 594.86 757.45 616.33 734.08 M 550.01 819.53 C 567.05 801.72 579.23 787.11 616.93 742.55 M 550.01 819.53 C 575.46 791.87 601.34 760.88 616.93 742.55 M 558.47 818.94 C 574.49 801.59 589.07 784.76 616.53 752.15 M 558.47 818.94 C 571.54 804.14 583.35 788.28 616.53 752.15 M 565.95 819.48 C 579.94 801.14 594.25 789.95 616.14 761.74 M 565.95 819.48 C 582.04 801.31 596.52 783.48 616.14 761.74 M 574.42 818.89 C 581.03 807.58 590.48 801.13 616.73 770.21 M 574.42 818.89 C 584.4 807.36 594.07 797.31 616.73 770.21 M 581.9 819.43 C 590.85 810.46 600.57 799.65 616.34 779.8 M 581.9 819.43 C 595.82 804.07 609.14 788.11 616.34 779.8 M 590.36 818.83 C 596.39 811.62 604.39 805.38 616.93 788.27 M 590.36 818.83 C 595.94 810.35 603.36 802.32 616.93 788.27 M 597.84 819.37 C 600.54 812.98 608.29 809.82 616.54 797.87 M 597.84 819.37 C 601.9 812.61 607.52 807.28 616.54 797.87 M 606.31 818.78 C 609.08 815.32 611.29 811.88 616.15 807.46 M 606.31 818.78 C 609.13 814.64 611.87 811.58 616.15 807.46" fill="none" stroke="#dae8fc" stroke-width="0.75" stroke-linejoin="round" stroke-linecap="round" stroke-miterlimit="10"></path>
    <path d="M 387 595.5 C 460.69 598.4 534.7 600.2 615 595.5 M 387 595.5 C 473.17 594.63 558.69 596.3 615 595.5 M 615 595.5 C 616.04 649.18 614 705.45 615 815.25 M 615 595.5 C 615.72 680 616.65 764.03 615 815.25 M 615 815.25 C 531.17 816.78 449.98 813.8 387 815.25 M 615 815.25 C 551.78 815.11 492.64 816.85 387 815.25 M 387 815.25 C 386.56 769.3 386.9 719.38 387 595.5 M 387 815.25 C 386.8 766.88 386.54 717.82 387 595.5" fill="none" stroke="#6c8ebf" stroke-width="1.5" stroke-linejoin="round" stroke-linecap="round" stroke-miterlimit="10"></path>
    <g transform="translate(-0.5 -0.5)scale(1.5)">
      <switch>
        <text x="334" y="541" fill="rgb(0, 0, 0)" font-family="Helvetica" font-size="14px" text-anchor="middle">Docker</text>
      </switch>
    </g>
    <rect x="67.5" y="595.5" width="310.5" height="218.25" fill="none" stroke="none"></rect>
    <path d="M 67.81 595.14 C 67.81 595.14 67.81 595.14 67.81 595.14 M 67.81 595.14 C 67.81 595.14 67.81 595.14 67.81 595.14 M 67.42 604.74 C 69.89 601.19 72.07 600.58 75.29 595.68 M 67.42 604.74 C 70.1 601.31 72.53 598.09 75.29 595.68 M 67.03 614.33 C 71.77 605.28 79.54 597.67 83.76 595.09 M 67.03 614.33 C 71.53 608.99 77.12 602.27 83.76 595.09 M 67.62 622.8 C 72.27 617.29 76.28 611.61 91.24 595.63 M 67.62 622.8 C 76.56 613.73 84.39 603.27 91.24 595.63 M 67.23 632.4 C 76.89 621.21 91.03 603.96 99.7 595.04 M 67.23 632.4 C 75.46 621.48 85.04 612.05 99.7 595.04 M 67.82 640.86 C 77.02 631.18 85.66 617.59 107.18 595.58 M 67.82 640.86 C 80.21 626.56 94.47 611.03 107.18 595.58 M 67.43 650.46 C 79.85 637.26 94.84 616.55 115.65 594.99 M 67.43 650.46 C 82.35 632.61 98.76 613.71 115.65 594.99 M 67.04 660.05 C 88.43 633.53 111.14 610.99 123.13 595.53 M 67.04 660.05 C 84.77 639.2 105.7 617.49 123.13 595.53 M 67.63 668.52 C 83.67 649.47 103.01 622.03 130.61 596.07 M 67.63 668.52 C 89.41 645.47 108.47 620.77 130.61 596.07 M 67.23 678.11 C 92.79 646.55 120.6 617.11 139.07 595.47 M 67.23 678.11 C 86.01 654.59 107.25 632.99 139.07 595.47 M 67.83 686.58 C 92.5 653.57 122.61 625.68 146.55 596.01 M 67.83 686.58 C 98.78 653.91 127.14 618.27 146.55 596.01 M 67.43 696.18 C 99.17 664.7 127.22 625.83 155.02 595.42 M 67.43 696.18 C 102.12 656.88 135.14 617.85 155.02 595.42 M 67.04 705.77 C 90.11 684.79 107.05 660.09 162.5 595.96 M 67.04 705.77 C 90.06 678.01 111.65 654.58 162.5 595.96 M 67.63 714.24 C 105.62 671.49 142.49 630.42 170.96 595.37 M 67.63 714.24 C 105.35 668.81 143.07 625.63 170.96 595.37 M 67.24 723.83 C 95.45 686.3 127.48 653.54 178.44 595.91 M 67.24 723.83 C 101.74 685.03 138.16 645.07 178.44 595.91 M 67.83 732.3 C 106.75 683.08 154.39 631.24 186.91 595.32 M 67.83 732.3 C 100.38 693.8 132.78 656.58 186.91 595.32 M 67.44 741.9 C 94.85 712.12 121.14 678.54 194.39 595.86 M 67.44 741.9 C 102.58 699.81 139.6 657.75 194.39 595.86 M 67.05 751.49 C 115.67 693.32 164.52 639.52 202.85 595.27 M 67.05 751.49 C 119.61 691.48 172.76 631.62 202.85 595.27 M 67.64 759.96 C 107.28 713.64 143.79 669.94 210.33 595.81 M 67.64 759.96 C 98.26 723.43 130.51 689.66 210.33 595.81 M 67.25 769.55 C 99.72 727.67 134.97 689.52 218.8 595.22 M 67.25 769.55 C 121.85 709.17 176.38 647.02 218.8 595.22 M 67.84 778.02 C 121.39 720.82 167.92 657.65 226.28 595.76 M 67.84 778.02 C 117.41 720.93 168.36 663.79 226.28 595.76 M 67.45 787.61 C 128.43 718.86 187.92 646.9 234.74 595.16 M 67.45 787.61 C 112.8 736.97 159.34 684.39 234.74 595.16 M 67.06 797.21 C 117.51 738.05 167.77 685.28 242.22 595.7 M 67.06 797.21 C 124.48 731.52 181.3 663.15 242.22 595.7 M 67.65 805.68 C 131 728.61 195.16 657.99 250.69 595.11 M 67.65 805.68 C 136.73 726.28 204.82 646.84 250.69 595.11 M 68.24 814.14 C 121.5 748.76 179.02 681.01 258.17 595.65 M 68.24 814.14 C 133.56 736.91 199.75 660.42 258.17 595.65 M 75.72 814.68 C 141.73 734.82 212.62 658.61 266.63 595.06 M 75.72 814.68 C 142.11 736.49 208.06 658.25 266.63 595.06 M 84.19 814.09 C 146.72 743.64 211.11 665.82 274.11 595.6 M 84.19 814.09 C 134.05 755.99 180.99 701.73 274.11 595.6 M 91.67 814.63 C 155.22 743.6 215.04 670.03 282.58 595.01 M 91.67 814.63 C 139.81 764.15 183.55 710.67 282.58 595.01 M 100.13 814.04 C 175.87 731.7 247.25 647.48 290.06 595.55 M 100.13 814.04 C 140.18 767.24 178.71 723.25 290.06 595.55 M 107.61 814.58 C 177.92 734.79 247.26 654.98 298.52 594.96 M 107.61 814.58 C 167.64 743.4 227.78 673.77 298.52 594.96 M 116.08 813.99 C 164.43 756.3 216.4 702.13 306.01 595.5 M 116.08 813.99 C 188.72 732.64 263.21 648.34 306.01 595.5 M 123.56 814.53 C 201.38 727.34 274.47 643.53 313.49 596.04 M 123.56 814.53 C 164.78 765.18 207.29 718.5 313.49 596.04 M 132.02 813.93 C 173.13 769.68 214.74 721.21 321.95 595.44 M 132.02 813.93 C 181.89 760.83 230.27 704.04 321.95 595.44 M 139.5 814.47 C 190.38 755.84 235.85 700.5 329.43 595.99 M 139.5 814.47 C 184.42 763.94 229.31 710.95 329.43 595.99 M 147.97 813.88 C 208.51 744.37 267.34 681.73 337.9 595.39 M 147.97 813.88 C 200.58 750.43 255.22 689.99 337.9 595.39 M 155.45 814.42 C 199.81 764.95 242.09 719.39 345.38 595.93 M 155.45 814.42 C 228.66 731.89 300.45 646.83 345.38 595.93 M 163.91 813.83 C 212.39 758.37 262.63 699.38 353.84 595.34 M 163.91 813.83 C 210.29 764.11 254.99 711.91 353.84 595.34 M 171.39 814.37 C 226.55 746.63 283.81 686.81 361.32 595.88 M 171.39 814.37 C 240.01 737.21 306.52 660.02 361.32 595.88 M 179.86 813.78 C 250 729.81 317.43 650.46 369.79 595.29 M 179.86 813.78 C 234.12 751.67 288.03 688.3 369.79 595.29 M 187.34 814.32 C 247.5 748.58 306.19 681.52 377.27 595.83 M 187.34 814.32 C 257.13 737.42 326.86 657.66 377.27 595.83 M 195.8 813.73 C 240.09 770.04 277.35 720.08 381.79 599.77 M 195.8 813.73 C 246.97 750.61 302.45 690.4 381.79 599.77 M 203.28 814.27 C 271.82 731.23 345.95 651.05 382.39 608.23 M 203.28 814.27 C 255.82 752.66 307.36 693.72 382.39 608.23 M 210.76 814.81 C 271.43 744.03 335.76 677.79 381.99 617.83 M 210.76 814.81 C 261.94 755.2 314.22 692.98 381.99 617.83 M 219.23 814.21 C 274.77 751.67 332.33 686.65 382.59 626.29 M 219.23 814.21 C 277.49 746.08 333.88 680.29 382.59 626.29 M 226.71 814.75 C 260.56 778.26 292.12 740.29 382.19 635.89 M 226.71 814.75 C 275.24 760.09 323.12 705.57 382.19 635.89 M 235.17 814.16 C 271.32 768.53 309.44 726.72 381.8 645.49 M 235.17 814.16 C 270.43 774.29 308.54 731.03 381.8 645.49 M 242.65 814.7 C 296.63 747.8 352.38 687.44 382.39 653.95 M 242.65 814.7 C 275.65 773.87 311.5 734.67 382.39 653.95 M 251.12 814.11 C 285.16 770.69 327.67 730.83 382 663.55 M 251.12 814.11 C 298.26 759.67 345.22 705.17 382 663.55 M 258.6 814.65 C 305.97 761.75 353.5 706.07 382.59 672.01 M 258.6 814.65 C 304.17 762.17 352.52 708.32 382.59 672.01 M 267.06 814.06 C 294.73 778.71 328.94 741.7 382.2 681.61 M 267.06 814.06 C 311.49 762.4 353.78 713.8 382.2 681.61 M 274.54 814.6 C 300.8 782.42 326.53 755.7 381.81 691.2 M 274.54 814.6 C 312.93 770.98 351.05 726.62 381.81 691.2 M 283.01 814.01 C 309.34 780.72 343.29 743.53 382.4 699.67 M 283.01 814.01 C 314.91 776.64 347.46 738.49 382.4 699.67 M 290.49 814.55 C 319.47 783.79 346.63 750.21 382.01 709.27 M 290.49 814.55 C 320.01 778.1 352 743.02 382.01 709.27 M 298.95 813.96 C 332.11 779.3 366.5 740.78 382.6 717.73 M 298.95 813.96 C 319.64 789.6 342.03 766.21 382.6 717.73 M 306.43 814.5 C 327.62 792.25 348.25 764.34 382.21 727.33 M 306.43 814.5 C 327.47 788.99 348.33 766.52 382.21 727.33 M 314.9 813.9 C 338.74 784.35 361.59 758.54 381.82 736.92 M 314.9 813.9 C 342.12 784.91 366.4 756.72 381.82 736.92 M 322.38 814.44 C 341.74 787.84 365.25 764.86 382.41 745.39 M 322.38 814.44 C 336.35 797.16 349.48 784.27 382.41 745.39 M 330.84 813.85 C 338.43 803.88 350.55 791.77 382.02 754.99 M 330.84 813.85 C 349.09 792.64 369.89 770.27 382.02 754.99 M 338.32 814.39 C 350.71 797.19 368.69 780.88 382.61 763.45 M 338.32 814.39 C 349.74 803.33 359.9 792.17 382.61 763.45 M 346.79 813.8 C 355.49 802.78 370.12 790.33 382.22 773.05 M 346.79 813.8 C 354.79 805.11 363.48 795.25 382.22 773.05 M 354.27 814.34 C 368.24 803.17 377.94 788.11 381.82 782.64 M 354.27 814.34 C 359.68 805.44 369.03 800.25 381.82 782.64 M 362.73 813.75 C 368.78 803.49 375.49 797.3 382.42 791.11 M 362.73 813.75 C 368.6 807.62 372.02 802.66 382.42 791.11 M 370.21 814.29 C 372.07 812.33 374.18 809.59 382.02 800.7 M 370.21 814.29 C 375.73 808.33 380.4 803.49 382.02 800.7" fill="none" stroke="#d5e8d4" stroke-width="0.75" stroke-linejoin="round" stroke-linecap="round" stroke-miterlimit="10"></path>
    <path d="M 67.5 595.5 C 178.68 597.41 292.07 596.89 378 595.5 M 67.5 595.5 C 165.13 594.39 264.52 593.88 378 595.5 M 378 595.5 C 377.93 669.85 378.54 741.26 378 813.75 M 378 595.5 C 378.8 663.71 378.29 730.4 378 813.75 M 378 813.75 C 267.55 809.79 158.44 810.18 67.5 813.75 M 378 813.75 C 269.42 810.38 157.47 810.5 67.5 813.75 M 67.5 813.75 C 64.28 757.71 66.34 699.74 67.5 595.5 M 67.5 813.75 C 67.17 766.49 66.08 718.94 67.5 595.5" fill="none" stroke="#82b366" stroke-width="1.5" stroke-linejoin="round" stroke-linecap="round" stroke-miterlimit="10"></path>
    <g transform="translate(-0.5 -0.5)scale(1.5)">
      <switch>
        <text x="149" y="540" fill="rgb(0, 0, 0)" font-family="Helvetica" font-size="14px" text-anchor="middle">KVM</text>
      </switch>
    </g>
    <rect x="153" y="703.5" width="60" height="63" fill="none" stroke="none"></rect>
    <path d="M 153.08 702.71 L 211.58 700.78 L 214.05 764.11 L 154.23 766.99" fill="rgb(255, 255, 255)" stroke="none"></path>
    <path d="M 153 703.5 C 171.45 703.91 192.56 705.99 213 703.5 M 153 703.5 C 167.93 702.59 187.19 704.51 213 703.5 M 213 703.5 C 212.35 718.69 216.07 733.75 213 766.5 M 213 703.5 C 211.91 728.06 212.25 753.28 213 766.5 M 213 766.5 C 195.14 765.68 169.65 765.03 153 766.5 M 213 766.5 C 195.74 768.19 178.28 767.27 153 766.5 M 153 766.5 C 155.15 756.48 154.75 740.44 153 703.5 M 153 766.5 C 152.65 750.43 152.97 734.43 153 703.5" fill="none" stroke="rgb(0, 0, 0)" stroke-width="1.5" stroke-linejoin="round" stroke-linecap="round" stroke-miterlimit="10"></path>
    <g transform="translate(-0.5 -0.5)scale(1.5)">
      <switch>
        <text x="122" y="494" fill="rgb(0, 0, 0)" font-family="Helvetica" font-size="12px" text-anchor="middle">Router</text>
      </switch>
    </g>
    <rect x="237" y="424.13" width="255" height="28.5" fill="none" stroke="none"></rect>
    <path d="M 236.96 424.17 C 236.96 424.17 236.96 424.17 236.96 424.17 M 236.96 424.17 C 236.96 424.17 236.96 424.17 236.96 424.17 M 236.57 433.77 C 239.36 431.25 241.84 427.33 245.42 423.58 M 236.57 433.77 C 239.63 430.73 242.72 427.01 245.42 423.58 M 237.16 442.23 C 242.06 433.84 247.25 431.2 252.9 424.12 M 237.16 442.23 C 240.61 437.56 243.75 434.85 252.9 424.12 M 236.77 451.83 C 246.19 440.13 256.61 428.24 260.38 424.66 M 236.77 451.83 C 242.85 442.98 252.23 433.3 260.38 424.66 M 241.29 455.77 C 250.49 447.46 257.77 439.39 268.85 424.07 M 241.29 455.77 C 252.69 443.63 262.63 430.65 268.85 424.07 M 248.77 456.31 C 258.96 444.53 269.08 429 276.33 424.61 M 248.77 456.31 C 259.88 442.54 269.64 432.01 276.33 424.61 M 257.24 455.72 C 266.74 448.65 273.58 440.8 284.79 424.02 M 257.24 455.72 C 263.75 447.16 272.48 440.68 284.79 424.02 M 264.72 456.26 C 275.17 446.28 283.04 430.28 292.27 424.56 M 264.72 456.26 C 270.75 449.74 276.96 444.81 292.27 424.56 M 273.18 455.66 C 282.22 444.26 291.72 431.5 300.74 423.97 M 273.18 455.66 C 283.22 446.14 290.03 435.13 300.74 423.97 M 280.66 456.2 C 292.14 441.93 303.08 434.35 308.22 424.51 M 280.66 456.2 C 288.42 447.82 295.11 437.95 308.22 424.51 M 289.13 455.61 C 296.35 444.06 306.04 435.14 316.68 423.91 M 289.13 455.61 C 297.78 445 307.47 434.3 316.68 423.91 M 296.61 456.15 C 303.37 448.61 306.96 439.55 324.16 424.45 M 296.61 456.15 C 308.21 442.35 316.7 432.29 324.16 424.45 M 305.07 455.56 C 315.4 447.09 323.01 432.95 332.63 423.86 M 305.07 455.56 C 313.95 447.49 320.3 437.29 332.63 423.86 M 312.55 456.1 C 321.19 448.39 331.63 433.07 340.11 424.4 M 312.55 456.1 C 322.52 446.38 331.78 434.35 340.11 424.4 M 320.04 456.64 C 328.61 444.48 336.77 436.33 348.57 423.81 M 320.04 456.64 C 329.49 445.44 341.41 434.52 348.57 423.81 M 328.5 456.05 C 335.85 445.56 348 435.02 356.05 424.35 M 328.5 456.05 C 338.68 443.45 347.96 431.88 356.05 424.35 M 335.98 456.59 C 344.56 445.46 360.62 432.83 364.52 423.76 M 335.98 456.59 C 346.24 444.92 356.71 430.31 364.52 423.76 M 344.44 456 C 356.42 447.54 362.13 432.56 372 424.3 M 344.44 456 C 356.24 443.99 366.45 433.42 372 424.3 M 351.93 456.54 C 359.85 442.83 371.04 437.2 380.46 423.71 M 351.93 456.54 C 359.55 447.14 369.25 435.74 380.46 423.71 M 360.39 455.95 C 372.55 445.27 381.21 430.09 387.94 424.25 M 360.39 455.95 C 369.64 446.29 377.95 437.77 387.94 424.25 M 367.87 456.49 C 378.15 446.74 381.73 438.22 396.41 423.66 M 367.87 456.49 C 376.51 447.21 386.33 435.29 396.41 423.66 M 376.34 455.89 C 383.43 447 391.79 438.19 403.89 424.2 M 376.34 455.89 C 386.84 446.41 395.58 434.4 403.89 424.2 M 383.82 456.43 C 390.91 448.04 398.08 437.55 412.35 423.6 M 383.82 456.43 C 395.77 443.02 406.28 429.82 412.35 423.6 M 392.28 455.84 C 399.11 443.77 410.86 435.32 419.83 424.14 M 392.28 455.84 C 400.28 447.47 409.55 434.91 419.83 424.14 M 399.76 456.38 C 409.54 446.9 416.24 433.95 427.32 424.68 M 399.76 456.38 C 408.64 445.46 416.13 437.89 427.32 424.68 M 408.23 455.79 C 413.13 449.18 421.22 441.72 435.78 424.09 M 408.23 455.79 C 418.28 444.96 425.8 436.15 435.78 424.09 M 415.71 456.33 C 427.51 444.83 431.2 434.68 443.26 424.63 M 415.71 456.33 C 424.6 445.75 435.2 432.77 443.26 424.63 M 424.17 455.74 C 436.69 442.39 442.38 433.91 451.73 424.04 M 424.17 455.74 C 432.09 448.96 440.35 440.31 451.73 424.04 M 431.65 456.28 C 439.98 441.95 451.55 433.48 459.21 424.58 M 431.65 456.28 C 438.16 448.91 443.57 444.16 459.21 424.58 M 440.12 455.69 C 447.46 443.25 455.63 436.99 467.67 423.99 M 440.12 455.69 C 448.63 444.45 458.75 435.37 467.67 423.99 M 447.6 456.23 C 454.1 452.2 460.57 440.11 475.15 424.53 M 447.6 456.23 C 455.78 445.56 466.43 435.16 475.15 424.53 M 456.06 455.64 C 459.38 449.72 467.6 444.91 483.62 423.94 M 456.06 455.64 C 463.79 446.93 474.12 436.9 483.62 423.94 M 463.54 456.18 C 470.76 445.25 482.49 436.02 491.1 424.48 M 463.54 456.18 C 471.92 445.42 482.47 435.5 491.1 424.48 M 472.01 455.58 C 478.78 445.35 487.14 438.6 496.61 427.28 M 472.01 455.58 C 479.34 447.16 484.55 438.57 496.61 427.28 M 479.49 456.12 C 484.8 451.49 490.76 446.48 496.22 436.88 M 479.49 456.12 C 483.9 449.61 488.71 443.16 496.22 436.88 M 486.97 456.66 C 489.38 454.64 492.05 451.82 495.82 446.48 M 486.97 456.66 C 490.47 453.66 492.44 449.5 495.82 446.48" fill="none" stroke="#f5f5f5" stroke-width="0.75" stroke-linejoin="round" stroke-linecap="round" stroke-miterlimit="10"></path>
    <path d="M 237 424.13 C 326.76 420.8 413.11 423.18 492 424.13 M 237 424.13 C 325.4 422.5 412.71 423.25 492 424.13 M 492 424.13 C 490.55 429.41 492.46 440.96 492 452.63 M 492 424.13 C 492.77 434.1 491.53 444.73 492 452.63 M 492 452.63 C 415.98 453.8 336.2 455.39 237 452.63 M 492 452.63 C 411.32 451.59 327.12 448.99 237 452.63 M 237 452.63 C 237.04 445.45 237.42 435.17 237 424.13 M 237 452.63 C 237.32 446.8 237.86 440.93 237 424.13" fill="none" stroke="#666666" stroke-width="1.5" stroke-linejoin="round" stroke-linecap="round" stroke-miterlimit="10"></path>
    <g transform="translate(-0.5 -0.5)scale(1.5)">
      <switch>
        <text x="243" y="296" fill="#333333" font-family="Helvetica" font-size="12px" text-anchor="middle">Open vSwitch</text>
      </switch>
    </g>
    <path d="M 170.51 697.13 L 230.99 520.13" fill="none" stroke="none"></path>
    <path d="M 170.52 697.13 M 170.52 697.13 C 193.44 636 213.65 572.44 231 520.13 M 170.52 697.13 C 191.35 633.28 213.51 569.54 231 520.13" fill="none" stroke="rgb(0, 0, 0)" stroke-width="1.5" stroke-linejoin="round" stroke-linecap="round" stroke-miterlimit="10"></path>
    <rect x="163.01" y="697.13" width="15" height="15" fill="none" stroke="none"></rect>
    <path d="M 162.53 695.05 L 177.44 695.25 L 180.74 710.69 L 161.18 709.5" fill="rgb(255, 255, 255)" stroke="none"></path>
    <path d="M 163.01 697.13 C 168.8 696.38 172.78 698.16 178.01 697.13 M 163.01 697.13 C 167.26 697.28 170.6 696.81 178.01 697.13 M 178.01 697.13 C 179.29 699.53 176.88 703.72 178.01 712.13 M 178.01 697.13 C 177.71 701.7 178.24 705.15 178.01 712.13 M 178.01 712.13 C 171.84 713.1 168.56 712.4 163.01 712.13 M 178.01 712.13 C 173.69 711.72 169.95 711.59 163.01 712.13 M 163.01 712.13 C 164.39 708.85 163.18 703.42 163.01 697.13 M 163.01 712.13 C 163.64 708.72 162.92 705.07 163.01 697.13" fill="none" stroke="rgb(0, 0, 0)" stroke-width="1.5" stroke-linejoin="round" stroke-linecap="round" stroke-miterlimit="10"></path>
    <rect x="232.5" y="703.5" width="60" height="63" fill="none" stroke="none"></rect>
    <path d="M 230.37 706.41 L 293.7 703.96 L 292.98 764.39 L 234.96 766.16" fill="rgb(255, 255, 255)" stroke="none"></path>
    <path d="M 232.5 703.5 C 250.01 701.82 264.61 705.95 292.5 703.5 M 232.5 703.5 C 247.51 703.93 260.59 705.23 292.5 703.5 M 292.5 703.5 C 292.56 727.03 291.44 742.48 292.5 766.5 M 292.5 703.5 C 291.52 722.42 291.67 744.34 292.5 766.5 M 292.5 766.5 C 275.39 769.28 251.36 767.83 232.5 766.5 M 292.5 766.5 C 274.14 765.3 255.54 767.93 232.5 766.5 M 232.5 766.5 C 234.15 744.71 230.93 720.39 232.5 703.5 M 232.5 766.5 C 231.12 743.44 230.85 720.36 232.5 703.5" fill="none" stroke="rgb(0, 0, 0)" stroke-width="1.5" stroke-linejoin="round" stroke-linecap="round" stroke-miterlimit="10"></path>
    <g transform="translate(-0.5 -0.5)scale(1.5)">
      <switch>
        <text x="175" y="494" fill="rgb(0, 0, 0)" font-family="Helvetica" font-size="12px" text-anchor="middle">Router</text>
      </switch>
    </g>
    <path d="M 250.01 697.13 L 260.99 520.13" fill="none" stroke="none"></path>
    <path d="M 250.02 697.13 M 250.02 697.13 C 253 654.01 257.63 607.82 261 520.13 M 250.02 697.13 C 253.54 629.11 257.95 559.33 261 520.13" fill="none" stroke="rgb(0, 0, 0)" stroke-width="1.5" stroke-linejoin="round" stroke-linecap="round" stroke-miterlimit="10"></path>
    <rect x="242.51" y="697.13" width="15" height="15" fill="none" stroke="none"></rect>
    <path d="M 241.25 698.06 L 259.22 699.29 L 260.2 709.39 L 243.14 714.72" fill="rgb(255, 255, 255)" stroke="none"></path>
    <path d="M 242.51 697.13 C 244.89 697.14 248.74 696.65 257.51 697.13 M 242.51 697.13 C 246.28 697.78 249.95 696.67 257.51 697.13 M 257.51 697.13 C 256.56 700.88 256.44 704.71 257.51 712.13 M 257.51 697.13 C 258.3 701.28 257.4 703.96 257.51 712.13 M 257.51 712.13 C 254.27 712.71 250.39 712.36 242.51 712.13 M 257.51 712.13 C 253.74 711.94 250.85 712.25 242.51 712.13 M 242.51 712.13 C 243.02 710.26 242.61 705.25 242.51 697.13 M 242.51 712.13 C 242.01 708.59 242.24 704.88 242.51 697.13" fill="none" stroke="rgb(0, 0, 0)" stroke-width="1.5" stroke-linejoin="round" stroke-linecap="round" stroke-miterlimit="10"></path>
    <path d="M 296.99 358.5 L 297.18 423.81" fill="none" stroke="none"></path>
    <path d="M 297 358.5 M 297 358.5 C 296.82 375.48 299.61 393.82 297.18 423.81 M 297 358.5 C 295.05 376.54 297.34 397.62 297.18 423.81" fill="none" stroke="rgb(0, 0, 0)" stroke-width="1.5" stroke-linejoin="round" stroke-linecap="round" stroke-miterlimit="10"></path>
    <g transform="translate(-0.5 -0.5)scale(1.5)">
      <switch>
        <text x="198" y="270" fill="rgb(0, 0, 0)" font-family="Helvetica" font-size="11px" text-anchor="middle">Uplink</text>
      </switch>
    </g>
    <rect x="289.49" y="343.5" width="15" height="15" fill="none" stroke="none"></rect>
    <path d="M 288.62 345.71 L 303.59 345.33 L 303.96 359.49 L 290.98 358.21" fill="rgb(255, 255, 255)" stroke="none"></path>
    <path d="M 289.49 343.5 C 291.89 344.67 298.52 342.01 304.49 343.5 M 289.49 343.5 C 294.87 343.33 299.99 343.34 304.49 343.5 M 304.49 343.5 C 304.23 345.98 304.44 350.2 304.49 358.5 M 304.49 343.5 C 304.35 348.05 304.22 353.83 304.49 358.5 M 304.49 358.5 C 298.4 358.03 293.12 358.33 289.49 358.5 M 304.49 358.5 C 298.77 357.93 292.79 358.1 289.49 358.5 M 289.49 358.5 C 288.3 352.71 290.02 348.66 289.49 343.5 M 289.49 358.5 C 289.91 353.37 289.38 349.74 289.49 343.5" fill="none" stroke="rgb(0, 0, 0)" stroke-width="1.5" stroke-linejoin="round" stroke-linecap="round" stroke-miterlimit="10"></path>
    <path d="M 201.26 697.13 L 338.99 520.13" fill="none" stroke="none"></path>
    <path d="M 201.27 697.13 M 201.27 697.13 C 234.93 653.55 272.77 606.18 339 520.13 M 201.27 697.13 C 241.66 643.04 282.72 590.52 339 520.13" fill="none" stroke="rgb(0, 0, 0)" stroke-width="1.5" stroke-linejoin="round" stroke-linecap="round" stroke-miterlimit="10"></path>
    <rect x="193.76" y="697.13" width="15" height="15" fill="none" stroke="none"></rect>
    <path d="M 195.35 696.69 L 209.79 695.01 L 206.5 712.23 L 190.84 714.81" fill="rgb(255, 255, 255)" stroke="none"></path>
    <path d="M 193.76 697.13 C 196.57 697.37 200.95 696.28 208.76 697.13 M 193.76 697.13 C 198.63 696.9 205.24 696.64 208.76 697.13 M 208.76 697.13 C 208.77 701.25 209.07 706.97 208.76 712.13 M 208.76 697.13 C 208.76 701.96 208.16 706.78 208.76 712.13 M 208.76 712.13 C 202.04 712.51 198.92 713.67 193.76 712.13 M 208.76 712.13 C 205.22 711.4 201.72 712.05 193.76 712.13 M 193.76 712.13 C 192.62 709.77 193.61 704.78 193.76 697.13 M 193.76 712.13 C 194.3 708.93 194.04 705.78 193.76 697.13" fill="none" stroke="rgb(0, 0, 0)" stroke-width="1.5" stroke-linejoin="round" stroke-linecap="round" stroke-miterlimit="10"></path>
    <path d="M 280.76 697.13 L 476.99 517.13" fill="none" stroke="none"></path>
    <path d="M 280.77 697.13 M 280.77 697.13 C 328.7 652.84 379.27 607.09 477 517.13 M 280.77 697.13 C 335.01 648.15 389.83 598.68 477 517.13" fill="none" stroke="rgb(0, 0, 0)" stroke-width="1.5" stroke-linejoin="round" stroke-linecap="round" stroke-miterlimit="10"></path>
    <rect x="273.26" y="697.13" width="15" height="15" fill="none" stroke="none"></rect>
    <path d="M 275.16 699.44 L 290.65 697.56 L 289.89 712.56 L 271.44 714.63" fill="rgb(255, 255, 255)" stroke="none"></path>
    <path d="M 273.26 697.13 C 278.22 697.21 281.53 697.32 288.26 697.13 M 273.26 697.13 C 278.94 696.86 284.15 697.9 288.26 697.13 M 288.26 697.13 C 289.05 703.51 288.51 708.44 288.26 712.13 M 288.26 697.13 C 288.04 702.11 288.33 707.15 288.26 712.13 M 288.26 712.13 C 285.5 713.21 280.86 711.36 273.26 712.13 M 288.26 712.13 C 282.76 712.18 277.49 712.15 273.26 712.13 M 273.26 712.13 C 272.43 707.76 273.61 699.73 273.26 697.13 M 273.26 712.13 C 272.91 708.26 273.65 705.47 273.26 697.13" fill="none" stroke="rgb(0, 0, 0)" stroke-width="1.5" stroke-linejoin="round" stroke-linecap="round" stroke-miterlimit="10"></path>
    <rect x="469.5" y="702.75" width="60" height="63" fill="none" stroke="none"></rect>
    <path d="M 467.75 703.5 L 531.84 700.75 L 530.37 764.45 L 469.38 768.13" fill="rgb(255, 255, 255)" stroke="none"></path>
    <path d="M 469.5 702.75 C 493.29 705.25 513.45 705.27 529.5 702.75 M 469.5 702.75 C 485.26 703.29 501.13 703.38 529.5 702.75 M 529.5 702.75 C 528.54 718.25 531.73 726.3 529.5 765.75 M 529.5 702.75 C 530.43 719.51 529.61 734.79 529.5 765.75 M 529.5 765.75 C 515.47 766.15 498.71 765.09 469.5 765.75 M 529.5 765.75 C 514.39 764.95 500.82 764.75 469.5 765.75 M 469.5 765.75 C 469.98 745.15 467.63 722.11 469.5 702.75 M 469.5 765.75 C 469.3 745.77 468.71 725.28 469.5 702.75" fill="none" stroke="rgb(0, 0, 0)" stroke-width="1.5" stroke-linejoin="round" stroke-linecap="round" stroke-miterlimit="10"></path>
    <g transform="translate(-0.5 -0.5)scale(1.5)">
      <switch>
        <text x="333" y="493" fill="rgb(0, 0, 0)" font-family="Helvetica" font-size="12px" text-anchor="middle">Alpine</text>
      </switch>
    </g>
    <path d="M 484.01 697.13 L 385.49 520.13" fill="none" stroke="none"></path>
    <path d="M 484.02 697.13 M 484.02 697.13 C 455.6 640.68 419.27 579.22 385.5 520.13 M 484.02 697.13 C 447.3 626.39 407.58 558.53 385.5 520.13" fill="none" stroke="rgb(0, 0, 0)" stroke-width="1.5" stroke-linejoin="round" stroke-linecap="round" stroke-miterlimit="10"></path>
    <rect x="476.51" y="697.13" width="15" height="15" fill="none" stroke="none"></rect>
    <path d="M 473.62 695.73 L 491.97 696.05 L 489.35 710.92 L 474.92 709.54" fill="rgb(255, 255, 255)" stroke="none"></path>
    <path d="M 476.51 697.13 C 482 697.14 487.11 698.69 491.51 697.13 M 476.51 697.13 C 480.2 696.6 484.75 696.72 491.51 697.13 M 491.51 697.13 C 490.83 700.84 490.85 706.3 491.51 712.13 M 491.51 697.13 C 491.25 702.46 491.62 708.14 491.51 712.13 M 491.51 712.13 C 488.6 712.7 483.75 711.28 476.51 712.13 M 491.51 712.13 C 486.25 711.9 480.76 711.87 476.51 712.13 M 476.51 712.13 C 475.21 706.46 476.18 702.09 476.51 697.13 M 476.51 712.13 C 476.02 708.3 475.91 703.71 476.51 697.13" fill="none" stroke="rgb(0, 0, 0)" stroke-width="1.5" stroke-linejoin="round" stroke-linecap="round" stroke-miterlimit="10"></path>
    <path d="M 514.76 697.13 L 512.99 517.13" fill="none" stroke="none"></path>
    <path d="M 514.77 697.13 M 514.77 697.13 C 512.15 640.66 514.38 579.11 513 517.13 M 514.77 697.13 C 514.92 659.5 514.48 623.08 513 517.13" fill="none" stroke="rgb(0, 0, 0)" stroke-width="1.5" stroke-linejoin="round" stroke-linecap="round" stroke-miterlimit="10"></path>
    <rect x="507.26" y="697.13" width="15" height="15" fill="none" stroke="none"></rect>
    <path d="M 505.24 699.76 L 523.23 697.76 L 522.31 710.29 L 509.83 712.47" fill="rgb(255, 255, 255)" stroke="none"></path>
    <path d="M 507.26 697.13 C 513.18 697.86 515.64 696.86 522.26 697.13 M 507.26 697.13 C 510.88 697.11 516.21 696.97 522.26 697.13 M 522.26 697.13 C 520.71 701.31 521.16 708.35 522.26 712.13 M 522.26 697.13 C 521.85 700.83 522.73 706.4 522.26 712.13 M 522.26 712.13 C 516.71 712.02 512.04 710.98 507.26 712.13 M 522.26 712.13 C 517.96 712.3 514.43 712.77 507.26 712.13 M 507.26 712.13 C 508.63 706.08 507.79 702.45 507.26 697.13 M 507.26 712.13 C 506.59 707.3 506.85 701.53 507.26 697.13" fill="none" stroke="rgb(0, 0, 0)" stroke-width="1.5" stroke-linejoin="round" stroke-linecap="round" stroke-miterlimit="10"></path>
    <rect x="168" y="453" width="126" height="58.5" fill="none" stroke="none"></rect>
    <path d="M 167.67 453.38 C 167.67 453.38 167.67 453.38 167.67 453.38 M 167.67 453.38 C 167.67 453.38 167.67 453.38 167.67 453.38 M 168.26 461.84 C 170.41 460.41 171.21 457.44 176.13 452.79 M 168.26 461.84 C 170.35 459.23 172.45 456.91 176.13 452.79 M 167.87 471.44 C 172.51 464.59 181.63 456.81 183.61 453.33 M 167.87 471.44 C 172.28 465.87 176.93 460.35 183.61 453.33 M 168.46 479.91 C 175.23 469.33 184.11 458.83 192.08 452.74 M 168.46 479.91 C 175.19 472.41 183.68 462.9 192.08 452.74 M 168.07 489.5 C 178.7 477.5 185.13 470.21 199.56 453.28 M 168.07 489.5 C 176.1 480 182.92 469.53 199.56 453.28 M 167.68 499.1 C 174.3 487.09 185.68 479.19 208.02 452.68 M 167.68 499.1 C 180.49 484.63 191.73 473.94 208.02 452.68 M 168.27 507.56 C 178.67 494.37 191.48 482.93 215.5 453.23 M 168.27 507.56 C 185.48 487.24 203.45 468.29 215.5 453.23 M 170.83 513.76 C 183.09 499.07 197.18 483.65 223.97 452.63 M 170.83 513.76 C 182.89 498.03 198.7 482.99 223.97 452.63 M 178.31 514.3 C 189.26 498.63 203.14 483.11 231.45 453.17 M 178.31 514.3 C 190.32 499.85 203.81 483.42 231.45 453.17 M 186.77 513.71 C 198.97 498.81 217.99 479.21 239.91 452.58 M 186.77 513.71 C 206.98 490.59 228.37 466.48 239.91 452.58 M 194.25 514.25 C 205.11 501.55 218.22 487.49 247.4 453.12 M 194.25 514.25 C 210.03 493.91 226.77 475.13 247.4 453.12 M 202.72 513.66 C 223.02 492.73 245 465.66 255.86 452.53 M 202.72 513.66 C 218.8 495.56 231.18 481.12 255.86 452.53 M 210.2 514.2 C 224.98 498.98 232.66 484.46 263.34 453.07 M 210.2 514.2 C 226.22 496.09 243.07 478.79 263.34 453.07 M 218.66 513.61 C 237.48 493.2 251.82 474.16 271.8 452.48 M 218.66 513.61 C 230.47 500.02 242.24 487.33 271.8 452.48 M 226.14 514.15 C 239.21 494.57 258.87 481.57 279.29 453.02 M 226.14 514.15 C 246.59 492.52 264.6 470.8 279.29 453.02 M 234.61 513.56 C 254.53 494.15 270.38 473.19 286.77 453.56 M 234.61 513.56 C 249.65 494.81 262.96 477.44 286.77 453.56 M 242.09 514.1 C 260.66 492.41 279.57 467.24 294.25 454.1 M 242.09 514.1 C 261.54 491.33 281.28 468.9 294.25 454.1 M 250.55 513.51 C 257.1 501.17 266.53 489.91 294.84 462.56 M 250.55 513.51 C 266.39 495.72 282.13 477.87 294.84 462.56 M 258.03 514.05 C 270.83 501.4 281.65 485.49 294.45 472.16 M 258.03 514.05 C 266.89 504.32 273.23 494.61 294.45 472.16 M 266.5 513.45 C 274.21 505.06 283.54 494.22 295.04 480.62 M 266.5 513.45 C 272.56 504.97 280.09 496.31 295.04 480.62 M 273.98 513.99 C 277.73 508.6 287.27 497.26 294.65 490.22 M 273.98 513.99 C 279.87 506.36 286.33 498.95 294.65 490.22 M 282.44 513.4 C 284.58 507.96 290.22 505.69 294.25 499.82 M 282.44 513.4 C 287.04 509.46 289.37 504.15 294.25 499.82 M 289.93 513.94 C 291.84 512.59 292.37 510.42 294.85 508.28 M 289.93 513.94 C 291.1 512.35 291.83 511.3 294.85 508.28" fill="none" stroke="#f5f5f5" stroke-width="0.75" stroke-linejoin="round" stroke-linecap="round" stroke-miterlimit="10"></path>
    <path d="M 168 453 C 215.61 456 256.06 452.38 294 453 M 168 453 C 197.19 452.36 227.17 453.64 294 453 M 294 453 C 291.96 475.18 291.18 494.99 294 511.5 M 294 453 C 294.22 469.21 294.02 487.24 294 511.5 M 294 511.5 C 266.52 512.02 234.91 508.86 168 511.5 M 294 511.5 C 256.23 511.73 216.27 510.41 168 511.5 M 168 511.5 C 165.47 493.33 169.06 471.01 168 453 M 168 511.5 C 167.6 489.32 168.05 467.26 168 453" fill="none" stroke="#666666" stroke-width="1.5" stroke-linejoin="round" stroke-linecap="round" stroke-miterlimit="10"></path>
    <g transform="translate(-0.5 -0.5)scale(1.5)">
      <switch>
        <text x="154" y="325" fill="#333333" font-family="Helvetica" font-size="12px" text-anchor="middle">fake-bridge...</text>
      </switch>
    </g>
    <rect x="301.5" y="452.25" width="126" height="58.5" fill="none" stroke="none"></rect>
    <path d="M 301.4 452.37 C 301.4 452.37 301.4 452.37 301.4 452.37 M 301.4 452.37 C 301.4 452.37 301.4 452.37 301.4 452.37 M 301.99 460.83 C 303.36 457.51 307.89 455.33 309.86 451.77 M 301.99 460.83 C 304.56 458.52 305.77 456.74 309.86 451.77 M 301.6 470.43 C 304.19 466.44 308.25 459.34 317.34 452.31 M 301.6 470.43 C 305.01 464.73 310.45 458.6 317.34 452.31 M 301.21 480.02 C 308.62 470.6 320.94 458.56 325.81 451.72 M 301.21 480.02 C 306.8 473.74 314.43 463.43 325.81 451.72 M 301.8 488.49 C 312.76 477.32 322.36 466.24 333.29 452.26 M 301.8 488.49 C 314.39 475.72 324.28 460.91 333.29 452.26 M 301.41 498.09 C 315.38 482.95 325.92 467.54 340.77 452.8 M 301.41 498.09 C 312.02 485.97 325.74 470.59 340.77 452.8 M 301.01 507.68 C 313.66 496.86 319.69 482.18 349.23 452.21 M 301.01 507.68 C 320.13 488.15 335.67 464.31 349.23 452.21 M 304.56 512.75 C 313.18 498.89 323.13 488.53 356.71 452.75 M 304.56 512.75 C 316.42 499.25 329.6 482.07 356.71 452.75 M 312.04 513.29 C 328.27 493.34 344.74 475.68 365.18 452.16 M 312.04 513.29 C 328.13 492.93 344.15 475.4 365.18 452.16 M 320.5 512.7 C 340.62 489.28 358.72 472.03 372.66 452.7 M 320.5 512.7 C 331.65 497.8 343.93 486.29 372.66 452.7 M 327.98 513.24 C 339.08 496.45 355.05 481.05 381.12 452.11 M 327.98 513.24 C 348.77 489.68 367.65 468.34 381.12 452.11 M 336.45 512.65 C 352.03 493.73 362.66 481.12 388.61 452.65 M 336.45 512.65 C 356.73 488.59 376.78 466.75 388.61 452.65 M 343.93 513.19 C 362.52 492.26 382.12 469.14 397.07 452.06 M 343.93 513.19 C 358.62 497.17 372.48 479.26 397.07 452.06 M 352.39 512.6 C 369.83 492.03 384.31 474.12 404.55 452.6 M 352.39 512.6 C 368.16 494.2 384.2 477.8 404.55 452.6 M 359.87 513.14 C 378.82 492.51 392.79 475.31 413.01 452 M 359.87 513.14 C 376.59 491.53 394.47 472.77 413.01 452 M 367.35 513.68 C 383.53 499.25 398.21 478.34 420.5 452.54 M 367.35 513.68 C 384.99 493.91 401.36 475.84 420.5 452.54 M 375.82 513.08 C 392.22 495.1 414.76 473.85 427.98 453.08 M 375.82 513.08 C 387.52 499.21 398.12 488.57 427.98 453.08 M 383.3 513.62 C 400.48 495.18 416.05 475.81 428.57 461.55 M 383.3 513.62 C 396.38 498.06 407.91 484.62 428.57 461.55 M 391.76 513.03 C 397.38 505.35 406.84 498.46 428.18 471.15 M 391.76 513.03 C 404.44 497.22 419.36 482.95 428.18 471.15 M 399.24 513.57 C 406.93 502.69 414.13 491.22 427.78 480.74 M 399.24 513.57 C 407.9 501.43 416.68 492.47 427.78 480.74 M 407.71 512.98 C 414.15 502.5 419.28 496.3 428.38 489.21 M 407.71 512.98 C 411.22 507.61 414.9 504.36 428.38 489.21 M 415.19 513.52 C 418.2 508.91 422.77 507.16 427.98 498.8 M 415.19 513.52 C 420.18 507.46 425.04 502.48 427.98 498.8 M 423.65 512.93 C 424.85 511.71 426.5 510.07 428.58 507.27 M 423.65 512.93 C 424.75 511.23 426.84 509.37 428.58 507.27" fill="none" stroke="#f5f5f5" stroke-width="0.75" stroke-linejoin="round" stroke-linecap="round" stroke-miterlimit="10"></path>
    <path d="M 301.5 452.25 C 347.4 452.18 392.08 448.86 427.5 452.25 M 301.5 452.25 C 338.56 453.69 376.97 453.8 427.5 452.25 M 427.5 452.25 C 425.64 462.04 429.15 476.21 427.5 510.75 M 427.5 452.25 C 426.66 466.67 427.81 482.93 427.5 510.75 M 427.5 510.75 C 378.75 513.19 329.76 512.28 301.5 510.75 M 427.5 510.75 C 383.44 511.44 339.86 511.45 301.5 510.75 M 301.5 510.75 C 301.96 496.02 300.35 479.88 301.5 452.25 M 301.5 510.75 C 302.69 491.28 303.38 471.82 301.5 452.25" fill="none" stroke="#666666" stroke-width="1.5" stroke-linejoin="round" stroke-linecap="round" stroke-miterlimit="10"></path>
    <g transform="translate(-0.5 -0.5)scale(1.5)">
      <switch>
        <text x="243" y="325" fill="#333333" font-family="Helvetica" font-size="12px" text-anchor="middle">fake-bridge...</text>
      </switch>
    </g>
    <rect x="435" y="452.25" width="126" height="58.5" fill="none" stroke="none"></rect>
    <path d="M 434.52 452.81 C 434.52 452.81 434.52 452.81 434.52 452.81 M 434.52 452.81 C 434.52 452.81 434.52 452.81 434.52 452.81 M 435.11 461.27 C 438.11 458.62 441.54 454.83 442.98 452.21 M 435.11 461.27 C 436.96 459.26 438.49 456.82 442.98 452.21 M 434.72 470.87 C 438.41 465.81 445.35 460.56 450.46 452.76 M 434.72 470.87 C 439.9 465.05 443.73 460.71 450.46 452.76 M 435.31 479.33 C 442.07 472.4 451.1 459.64 458.93 452.16 M 435.31 479.33 C 442.22 471.88 445.45 467.38 458.93 452.16 M 434.92 488.93 C 446.93 472.59 459.69 457.72 466.41 452.7 M 434.92 488.93 C 442.77 477.77 452.42 468.86 466.41 452.7 M 434.52 498.53 C 448.44 487.98 456.76 473.59 474.87 452.11 M 434.52 498.53 C 446.53 484.28 460.34 466.52 474.87 452.11 M 435.12 506.99 C 444.68 493.98 455.52 482.54 482.35 452.65 M 435.12 506.99 C 453.49 486.1 471.85 464.24 482.35 452.65 M 437.68 513.19 C 454.88 494.54 477.73 470.55 490.82 452.06 M 437.68 513.19 C 448.61 499.44 462.63 485.56 490.82 452.06 M 446.14 512.6 C 466.1 494.76 478.82 469.34 498.3 452.6 M 446.14 512.6 C 465.95 490.84 487.1 466.64 498.3 452.6 M 453.62 513.14 C 466.92 498.65 474.15 489.19 506.76 452.01 M 453.62 513.14 C 466.79 496.72 481.03 482.06 506.76 452.01 M 461.1 513.68 C 479.65 497.74 492.5 481.01 514.24 452.55 M 461.1 513.68 C 475.05 499.13 485.43 484.46 514.24 452.55 M 469.57 513.09 C 492.82 489.32 509.28 466.31 522.71 451.96 M 469.57 513.09 C 485.39 493.38 500.24 475.49 522.71 451.96 M 477.05 513.63 C 494.81 494.27 509.71 474.8 530.19 452.5 M 477.05 513.63 C 490.41 497.77 504.29 485.24 530.19 452.5 M 485.51 513.04 C 502.2 491.61 517.44 474.12 538.65 451.9 M 485.51 513.04 C 507.03 489.17 524.93 465.38 538.65 451.9 M 492.99 513.58 C 511.82 490.84 532.11 469.44 546.13 452.44 M 492.99 513.58 C 508.97 496.05 523.73 477.26 546.13 452.44 M 501.46 512.98 C 519.39 492.77 543.18 466.08 554.6 451.85 M 501.46 512.98 C 520.19 492.53 539.34 471.1 554.6 451.85 M 508.94 513.52 C 523.48 491.82 543.99 474.12 562.08 452.39 M 508.94 513.52 C 521.78 496.25 536.92 482.11 562.08 452.39 M 517.4 512.93 C 528.63 499.37 540.79 482.88 561.68 461.99 M 517.4 512.93 C 535.02 493.01 550.67 474.41 561.68 461.99 M 524.88 513.47 C 537.43 503.11 546.82 490.85 561.29 471.59 M 524.88 513.47 C 537.1 499.22 547.31 485.77 561.29 471.59 M 533.35 512.88 C 541.66 504.94 552.73 492.83 561.88 480.05 M 533.35 512.88 C 539.54 506.07 546.86 497.38 561.88 480.05 M 540.83 513.42 C 549.48 503.86 556.21 496.79 561.49 489.65 M 540.83 513.42 C 548.61 505.14 553.65 498.3 561.49 489.65 M 549.29 512.83 C 553 509.25 556.03 504.31 562.08 498.11 M 549.29 512.83 C 551.73 509.86 554.41 506.65 562.08 498.11 M 556.77 513.37 C 558.63 512.29 559.9 511.17 561.69 507.71 M 556.77 513.37 C 558.54 511.56 560.48 508.88 561.69 507.71" fill="none" stroke="#f5f5f5" stroke-width="0.75" stroke-linejoin="round" stroke-linecap="round" stroke-miterlimit="10"></path>
    <path d="M 435 452.25 C 479.18 451.63 528.1 454.61 561 452.25 M 435 452.25 C 482.93 453.25 529.77 452.18 561 452.25 M 561 452.25 C 558.15 467.36 559.95 481.58 561 510.75 M 561 452.25 C 562.11 467.87 561.6 482.36 561 510.75 M 561 510.75 C 516.19 509.12 469.01 510.45 435 510.75 M 561 510.75 C 510.65 511.9 463.45 510.25 435 510.75 M 435 510.75 C 433.62 499.45 432.8 483.5 435 452.25 M 435 510.75 C 433.61 493.99 434.55 477.13 435 452.25" fill="none" stroke="#666666" stroke-width="1.5" stroke-linejoin="round" stroke-linecap="round" stroke-miterlimit="10"></path>
    <g transform="translate(-0.5 -0.5)scale(1.5)">
      <switch>
        <text x="332" y="325" fill="#333333" font-family="Helvetica" font-size="12px" text-anchor="middle">fake-bridge...</text>
      </switch>
    </g>
    <rect x="223.49" y="505.13" width="15" height="15" fill="none" stroke="none"></rect>
    <path d="M 223.12 505.56 C 223.12 505.56 223.12 505.56 223.12 505.56 M 223.12 505.56 C 223.12 505.56 223.12 505.56 223.12 505.56 M 223.71 514.02 C 225.29 512.22 226.15 509.72 231.58 504.97 M 223.71 514.02 C 226.19 511.93 228.38 508.49 231.58 504.97 M 225.29 521.35 C 228.75 515.58 235.59 511.28 239.06 505.51 M 225.29 521.35 C 228.98 517.04 231.01 515.71 239.06 505.51 M 232.77 521.89 C 235.13 519.87 237.84 516.15 238.67 515.1 M 232.77 521.89 C 234.49 520.5 236.32 518.56 238.67 515.1" fill="none" stroke="#fff2cc" stroke-width="0.75" stroke-linejoin="round" stroke-linecap="round" stroke-miterlimit="10"></path>
    <path d="M 223.49 505.13 C 227.99 505.99 233.74 504.48 238.49 505.13 M 223.49 505.13 C 228.29 505.14 231.6 505.84 238.49 505.13 M 238.49 505.13 C 237.25 509.22 239.55 514.35 238.49 520.13 M 238.49 505.13 C 239.3 509.29 238.48 515.31 238.49 520.13 M 238.49 520.13 C 235.08 519.35 230.68 519.4 223.49 520.13 M 238.49 520.13 C 235.04 519.45 232.49 519.49 223.49 520.13 M 223.49 520.13 C 224.19 518.1 222.19 514.18 223.49 505.13 M 223.49 520.13 C 223.14 515.39 223.67 510.52 223.49 505.13" fill="none" stroke="#d6b656" stroke-width="1.5" stroke-linejoin="round" stroke-linecap="round" stroke-miterlimit="10"></path>
    <rect x="331.49" y="505.13" width="15" height="15" fill="none" stroke="none"></rect>
    <path d="M 331.87 504.69 C 331.87 504.69 331.87 504.69 331.87 504.69 M 331.87 504.69 C 331.87 504.69 331.87 504.69 331.87 504.69 M 331.48 514.29 C 335.6 511.54 337.73 506.82 339.35 505.23 M 331.48 514.29 C 333.67 511.74 336.31 508.64 339.35 505.23 M 333.05 521.62 C 337.62 516.1 343.4 508.86 346.83 505.77 M 333.05 521.62 C 338.74 516.07 342.1 509.45 346.83 505.77 M 341.52 521.03 C 343.9 519.24 346.71 515.96 347.42 514.24 M 341.52 521.03 C 343.8 519.03 345.6 516.76 347.42 514.24" fill="none" stroke="#fff2cc" stroke-width="0.75" stroke-linejoin="round" stroke-linecap="round" stroke-miterlimit="10"></path>
    <path d="M 331.49 505.13 C 335.57 505.76 340.78 504.85 346.49 505.13 M 331.49 505.13 C 336.7 505.72 343.06 505.58 346.49 505.13 M 346.49 505.13 C 346.99 508.84 345.87 515.09 346.49 520.13 M 346.49 505.13 C 346.28 508.61 346.67 510.99 346.49 520.13 M 346.49 520.13 C 343.56 519.55 338.4 521.1 331.49 520.13 M 346.49 520.13 C 341.31 519.99 334.88 519.69 331.49 520.13 M 331.49 520.13 C 330.85 515.59 330.44 508.65 331.49 505.13 M 331.49 520.13 C 331.59 515.06 331.13 511.11 331.49 505.13" fill="none" stroke="#d6b656" stroke-width="1.5" stroke-linejoin="round" stroke-linecap="round" stroke-miterlimit="10"></path>
    <rect x="253.49" y="505.13" width="15" height="15" fill="none" stroke="none"></rect>
    <path d="M 253.98 504.56 C 253.98 504.56 253.98 504.56 253.98 504.56 M 253.98 504.56 C 253.98 504.56 253.98 504.56 253.98 504.56 M 253.59 514.16 C 254.73 511.77 258.92 507.61 261.46 505.1 M 253.59 514.16 C 256.01 510.8 258.79 508.48 261.46 505.1 M 255.17 521.49 C 258.23 516.5 265.87 511.16 268.94 505.64 M 255.17 521.49 C 258.75 515.85 264.33 510.9 268.94 505.64 M 262.65 522.03 C 264.41 520.14 267.12 517.14 268.55 515.24 M 262.65 522.03 C 264.42 519.77 267.02 516.96 268.55 515.24" fill="none" stroke="#fff2cc" stroke-width="0.75" stroke-linejoin="round" stroke-linecap="round" stroke-miterlimit="10"></path>
    <path d="M 253.49 505.13 C 257.59 503.75 260.2 505.97 268.49 505.13 M 253.49 505.13 C 257.81 505.34 262.95 505.4 268.49 505.13 M 268.49 505.13 C 268.02 510.57 269.61 515.34 268.49 520.13 M 268.49 505.13 C 268.89 508.87 268.13 514.12 268.49 520.13 M 268.49 520.13 C 265.01 518.96 260.01 519.36 253.49 520.13 M 268.49 520.13 C 264.08 519.67 257.89 520.15 253.49 520.13 M 253.49 520.13 C 253.33 516.52 252.12 510.02 253.49 505.13 M 253.49 520.13 C 253.51 515.26 253.5 510.33 253.49 505.13" fill="none" stroke="#d6b656" stroke-width="1.5" stroke-linejoin="round" stroke-linecap="round" stroke-miterlimit="10"></path>
    <rect x="469.49" y="502.13" width="15" height="15" fill="none" stroke="none"></rect>
    <path d="M 469.02 502.67 C 469.02 502.67 469.02 502.67 469.02 502.67 M 469.02 502.67 C 469.02 502.67 469.02 502.67 469.02 502.67 M 469.61 511.14 C 471.7 509.78 473.21 507.6 477.48 502.08 M 469.61 511.14 C 473.13 507.33 475.15 504.15 477.48 502.08 M 471.19 518.47 C 472.6 516.9 476.42 511.79 484.96 502.62 M 471.19 518.47 C 474.01 514.48 478.16 509.51 484.96 502.62 M 478.67 519.01 C 480.58 517.36 483.39 514.8 484.57 512.22 M 478.67 519.01 C 479.95 517.5 481.34 515.73 484.57 512.22" fill="none" stroke="#fff2cc" stroke-width="0.75" stroke-linejoin="round" stroke-linecap="round" stroke-miterlimit="10"></path>
    <path d="M 469.49 502.13 C 473.16 500.52 478.24 503.33 484.49 502.13 M 469.49 502.13 C 472.72 501.42 474.9 502.14 484.49 502.13 M 484.49 502.13 C 485.76 507.19 483.93 510.07 484.49 517.13 M 484.49 502.13 C 483.88 508.19 484.32 514.31 484.49 517.13 M 484.49 517.13 C 478.49 516.46 475.73 518.36 469.49 517.13 M 484.49 517.13 C 479.85 517.21 475.78 517.35 469.49 517.13 M 469.49 517.13 C 470.68 514.01 468.06 507.49 469.49 502.13 M 469.49 517.13 C 469.66 511.93 468.65 507.93 469.49 502.13" fill="none" stroke="#d6b656" stroke-width="1.5" stroke-linejoin="round" stroke-linecap="round" stroke-miterlimit="10"></path>
    <rect x="505.49" y="502.13" width="15" height="15" fill="none" stroke="none"></rect>
    <path d="M 505.27 502.39 C 505.27 502.39 505.27 502.39 505.27 502.39 M 505.27 502.39 C 505.27 502.39 505.27 502.39 505.27 502.39 M 505.86 510.85 C 507.25 508.63 509.61 504.26 513.73 501.79 M 505.86 510.85 C 509.14 507.53 511.03 504.24 513.73 501.79 M 507.44 518.18 C 509.44 513.28 515.59 510.08 521.21 502.33 M 507.44 518.18 C 511.09 512.31 515.95 508.25 521.21 502.33 M 514.92 518.72 C 515.46 517.62 516.84 516.65 520.82 511.93 M 514.92 518.72 C 517.54 516.15 519.13 513.24 520.82 511.93" fill="none" stroke="#fff2cc" stroke-width="0.75" stroke-linejoin="round" stroke-linecap="round" stroke-miterlimit="10"></path>
    <path d="M 505.49 502.13 C 510.12 501.18 514.35 502.88 520.49 502.13 M 505.49 502.13 C 511.15 501.67 514.97 502.71 520.49 502.13 M 520.49 502.13 C 519.72 507.99 521.88 509.98 520.49 517.13 M 520.49 502.13 C 521.18 506.92 520.72 512.06 520.49 517.13 M 520.49 517.13 C 517.7 518.57 514.91 518.28 505.49 517.13 M 520.49 517.13 C 514.05 517.03 508.71 517.67 505.49 517.13 M 505.49 517.13 C 506.18 512.34 504.55 510.21 505.49 502.13 M 505.49 517.13 C 505.34 513.97 505.35 509.98 505.49 502.13" fill="none" stroke="#d6b656" stroke-width="1.5" stroke-linejoin="round" stroke-linecap="round" stroke-miterlimit="10"></path>
    <rect x="377.99" y="505.13" width="15" height="15" fill="none" stroke="none"></rect>
    <path d="M 378.04 505.07 C 378.04 505.07 378.04 505.07 378.04 505.07 M 378.04 505.07 C 378.04 505.07 378.04 505.07 378.04 505.07 M 377.65 514.67 C 380.72 511.35 380.7 510 385.52 505.61 M 377.65 514.67 C 379.29 512.26 382.26 510.37 385.52 505.61 M 379.22 522 C 380.88 520.27 386.81 512.74 393.98 505.02 M 379.22 522 C 385.26 516.07 388.24 511.17 393.98 505.02 M 387.69 521.41 C 388.15 520.55 390.36 518.81 393.59 514.62 M 387.69 521.41 C 389.37 519.86 390.69 517.98 393.59 514.62" fill="none" stroke="#fff2cc" stroke-width="0.75" stroke-linejoin="round" stroke-linecap="round" stroke-miterlimit="10"></path>
    <path d="M 377.99 505.13 C 382.19 503.75 389.07 505 392.99 505.13 M 377.99 505.13 C 382.22 505.96 388.25 505.76 392.99 505.13 M 392.99 505.13 C 393.09 507.52 391.82 510.93 392.99 520.13 M 392.99 505.13 C 392.34 508.55 392.86 510.8 392.99 520.13 M 392.99 520.13 C 386.84 518.95 383.87 521.28 377.99 520.13 M 392.99 520.13 C 388.6 519.93 385.8 520.07 377.99 520.13 M 377.99 520.13 C 379.01 515.72 379.19 512.85 377.99 505.13 M 377.99 520.13 C 378.03 514.97 377.66 509.16 377.99 505.13" fill="none" stroke="#d6b656" stroke-width="1.5" stroke-linejoin="round" stroke-linecap="round" stroke-miterlimit="10"></path>
    <rect x="0" y="0" width="697.5" height="229.5" fill="none" stroke="none"></rect>
    <path d="M 1.1 -0.48 L 694.74 1.83 L 696.4 231.18 L -1.01 226.98" fill="rgb(255, 255, 255)" stroke="none"></path>
    <path d="M 0 0 C 242.18 -0.14 485.33 0.41 697.5 0 M 0 0 C 270.77 1.36 543.09 2.16 697.5 0 M 697.5 0 C 697.23 69.09 696.85 141.79 697.5 229.5 M 697.5 0 C 694.85 53.04 695.14 104.82 697.5 229.5 M 697.5 229.5 C 535.55 232.33 375.06 232.1 0 229.5 M 697.5 229.5 C 479.46 227.92 261.34 228.98 0 229.5 M 0 229.5 C 2.13 175.82 1.95 118.33 0 0 M 0 229.5 C -0.07 171.53 0.24 116.17 0 0" fill="none" stroke="rgb(0, 0, 0)" stroke-width="1.5" stroke-linejoin="round" stroke-linecap="round" stroke-miterlimit="10"></path>
    <g transform="translate(-0.5 -0.5)scale(1.5)">
      <switch>
        <text x="233" y="150" fill="rgb(0, 0, 0)" font-family="Helvetica" font-size="12px" text-anchor="middle" font-weight="bold">LTB Software Stack</text>
      </switch>
    </g>
    <rect x="109.5" y="30" width="478.5" height="147" fill="none" stroke="none"></rect>
    <path d="M 109.92 29.52 C 109.92 29.52 109.92 29.52 109.92 29.52 M 109.92 29.52 C 109.92 29.52 109.92 29.52 109.92 29.52 M 109.52 39.12 C 111.74 37.12 112.91 32.88 117.4 30.06 M 109.52 39.12 C 112.66 36.07 115.31 33.26 117.4 30.06 M 109.13 48.72 C 110.9 45.45 116.24 42.41 125.86 29.47 M 109.13 48.72 C 114.86 41.29 122.14 33.56 125.86 29.47 M 109.72 57.18 C 115.09 47.81 121.09 42.42 133.34 30.01 M 109.72 57.18 C 117.45 47.62 124.44 40.75 133.34 30.01 M 109.33 66.78 C 120.2 54.85 132.36 35.95 140.82 30.55 M 109.33 66.78 C 120.73 54.04 132.99 40.64 140.82 30.55 M 109.92 75.24 C 126.24 60.8 136.99 44.58 149.29 29.96 M 109.92 75.24 C 120.91 60.58 134.23 48.85 149.29 29.96 M 109.53 84.84 C 121.52 72.08 135.84 54.14 156.77 30.5 M 109.53 84.84 C 128.72 64.65 146.15 41.64 156.77 30.5 M 109.14 94.43 C 131.76 69.6 150.87 44.89 165.23 29.91 M 109.14 94.43 C 129.82 70.24 153.58 43.67 165.23 29.91 M 109.73 102.9 C 134.22 75.76 158.37 50.17 172.71 30.45 M 109.73 102.9 C 122.5 86.52 137.29 71.78 172.71 30.45 M 109.34 112.5 C 129.07 90.01 153.67 62.01 181.18 29.86 M 109.34 112.5 C 127.61 92.5 145.72 72.76 181.18 29.86 M 109.93 120.96 C 132.96 94.17 159.43 65.56 188.66 30.4 M 109.93 120.96 C 137.41 87.66 166.04 54.49 188.66 30.4 M 109.54 130.56 C 134.94 104.74 155.39 78.99 197.12 29.8 M 109.54 130.56 C 144.49 90.89 179.91 51.7 197.12 29.8 M 109.15 140.15 C 138.2 107.03 170.43 74.09 204.6 30.34 M 109.15 140.15 C 136.11 111.09 160.71 81.08 204.6 30.34 M 109.74 148.62 C 133.62 118.66 160.06 94.52 213.07 29.75 M 109.74 148.62 C 143.74 109.1 179.76 69.02 213.07 29.75 M 109.35 158.22 C 145.16 118.58 176.88 85.61 220.55 30.29 M 109.35 158.22 C 132.72 132.55 156.78 105.66 220.55 30.29 M 109.94 166.68 C 154.2 111.34 205.72 58.87 229.01 29.7 M 109.94 166.68 C 140.75 133.35 169.93 99.58 229.01 29.7 M 109.55 176.28 C 137.18 144.26 166 107.98 236.49 30.24 M 109.55 176.28 C 158.15 123.64 203.39 68.1 236.49 30.24 M 114.07 180.21 C 151.26 134.87 190.55 89.52 244.96 29.65 M 114.07 180.21 C 146.27 144.34 176.82 108.48 244.96 29.65 M 121.55 180.75 C 165.85 134.15 209.14 80.57 252.44 30.19 M 121.55 180.75 C 172.47 125.49 219.15 69.83 252.44 30.19 M 130.02 180.16 C 180.41 127.29 228.28 72.68 260.9 29.6 M 130.02 180.16 C 175.12 128.34 220.85 75.55 260.9 29.6 M 137.5 180.7 C 170.9 147.29 199.7 110.35 268.38 30.14 M 137.5 180.7 C 183.05 129.12 224.78 76.41 268.38 30.14 M 145.96 180.11 C 190.42 127.94 234.14 80.38 276.85 29.54 M 145.96 180.11 C 189.78 130.72 233.78 80.22 276.85 29.54 M 153.44 180.65 C 198.98 129.15 244.45 82.77 284.33 30.08 M 153.44 180.65 C 183.27 145.05 212.03 109.17 284.33 30.08 M 160.92 181.19 C 195.7 144.95 222.4 109.69 292.79 29.49 M 160.92 181.19 C 193.97 140.38 228.2 100.96 292.79 29.49 M 169.39 180.6 C 215.38 127.64 258.48 77.88 300.27 30.03 M 169.39 180.6 C 208.57 134.36 249.95 86.67 300.27 30.03 M 176.87 181.14 C 209.45 144.92 242.11 107.19 308.74 29.44 M 176.87 181.14 C 222.76 132.07 267.35 79.52 308.74 29.44 M 185.33 180.55 C 232.38 129.06 278.27 75.74 316.22 29.98 M 185.33 180.55 C 222.33 137.13 257.37 96.01 316.22 29.98 M 192.81 181.09 C 237.17 130.34 284.64 72.14 323.7 30.52 M 192.81 181.09 C 227.79 142.09 262.69 103.98 323.7 30.52 M 201.28 180.49 C 253.37 119.87 300.51 63.38 332.16 29.93 M 201.28 180.49 C 247.73 130.58 290.83 79.32 332.16 29.93 M 208.76 181.03 C 260.02 124 307.85 68.08 339.64 30.47 M 208.76 181.03 C 247.15 135.76 285.47 91.68 339.64 30.47 M 217.22 180.44 C 250.19 144.54 286.19 107.77 348.11 29.88 M 217.22 180.44 C 259.02 128.79 302.93 81.05 348.11 29.88 M 224.71 180.98 C 266.6 133.58 314.15 83.31 355.59 30.42 M 224.71 180.98 C 272.41 127.8 316.99 74.46 355.59 30.42 M 233.17 180.39 C 270.33 138.28 313.6 89.1 364.05 29.83 M 233.17 180.39 C 261.98 146.99 288.33 115.9 364.05 29.83 M 240.65 180.93 C 267.08 149 296.36 120.49 371.53 30.37 M 240.65 180.93 C 286.35 127.84 332.9 76.46 371.53 30.37 M 249.11 180.34 C 277.4 146.94 308.63 116.39 380 29.77 M 249.11 180.34 C 294.1 127.69 338.17 76.84 380 29.77 M 256.6 180.88 C 288.82 142.36 320.3 103.58 387.48 30.31 M 256.6 180.88 C 290.7 140.63 325.82 102.59 387.48 30.31 M 265.06 180.29 C 304.64 137.16 338.46 93.9 395.94 29.72 M 265.06 180.29 C 293.5 145.63 323.83 111.73 395.94 29.72 M 272.54 180.83 C 307.17 142.37 340 99.72 403.42 30.26 M 272.54 180.83 C 301.22 146.97 328.38 116.39 403.42 30.26 M 281.01 180.24 C 324.56 135.49 361.2 85.88 411.89 29.67 M 281.01 180.24 C 329.62 125.95 379.28 67.51 411.89 29.67 M 288.49 180.78 C 326.64 140.06 364.51 95.5 419.37 30.21 M 288.49 180.78 C 317.47 146.12 346.81 109.66 419.37 30.21 M 296.95 180.18 C 326.97 140.87 365.57 105.64 427.83 29.62 M 296.95 180.18 C 325.3 145.29 354.34 113.39 427.83 29.62 M 304.43 180.72 C 346.07 128.09 389.74 81.47 435.31 30.16 M 304.43 180.72 C 341.86 138.65 381.06 94.22 435.31 30.16 M 312.9 180.13 C 343.5 142.43 370.27 112.43 443.78 29.57 M 312.9 180.13 C 340.71 145.32 370.46 114.25 443.78 29.57 M 320.38 180.67 C 356.15 139.66 388.95 100.11 451.26 30.11 M 320.38 180.67 C 351.55 143.95 383.62 107.49 451.26 30.11 M 327.86 181.21 C 375.25 131.77 416.97 80.38 459.72 29.52 M 327.86 181.21 C 373.31 128.45 418.67 75.8 459.72 29.52 M 336.32 180.62 C 376.26 137.36 415.02 89.37 467.2 30.06 M 336.32 180.62 C 375.98 133.36 417.43 85.34 467.2 30.06 M 343.8 181.16 C 396.72 122.79 443.6 64.98 475.67 29.46 M 343.8 181.16 C 370.4 149.5 398.76 116.92 475.67 29.46 M 352.27 180.57 C 391.37 131.22 433.72 82.15 483.15 30 M 352.27 180.57 C 402.13 121.56 454.62 61.86 483.15 30 M 359.75 181.11 C 406.31 125.17 455.77 69.6 490.63 30.54 M 359.75 181.11 C 398.81 135.84 437.47 91.28 490.63 30.54 M 368.21 180.52 C 413.06 132 456.15 78.28 499.1 29.95 M 368.21 180.52 C 413.89 126.77 461.05 75.39 499.1 29.95 M 375.69 181.06 C 407.93 147.99 433.57 111.82 506.58 30.49 M 375.69 181.06 C 421.87 126.74 471.59 69.27 506.58 30.49 M 384.16 180.47 C 411.63 146.4 443.65 114.9 515.04 29.9 M 384.16 180.47 C 425.23 131.8 468.83 84.45 515.04 29.9 M 391.64 181.01 C 426.79 142.07 464.67 98.87 522.52 30.44 M 391.64 181.01 C 427.95 138.74 461 98.24 522.52 30.44 M 400.1 180.41 C 428.14 143.89 461.23 110.03 530.99 29.85 M 400.1 180.41 C 453.02 120.42 503.83 61.2 530.99 29.85 M 407.58 180.95 C 448.74 128.94 495.44 78.33 538.47 30.39 M 407.58 180.95 C 446.4 136.44 483.49 94.31 538.47 30.39 M 416.05 180.36 C 448.27 143.21 483.81 108.46 546.93 29.8 M 416.05 180.36 C 462.73 124.58 510.07 71.86 546.93 29.8 M 423.53 180.9 C 453.8 146.49 483.52 108.93 554.41 30.34 M 423.53 180.9 C 450.51 152.67 477.78 119.34 554.41 30.34 M 431.99 180.31 C 475.23 129.41 516.6 81.46 562.88 29.75 M 431.99 180.31 C 481.04 126.29 527.06 73.27 562.88 29.75 M 439.47 180.85 C 477.06 137.5 518.18 91.81 570.36 30.29 M 439.47 180.85 C 472.33 142.34 503.12 105.18 570.36 30.29 M 447.94 180.26 C 495.03 129.89 539.09 78.07 578.82 29.69 M 447.94 180.26 C 500.39 120.8 552.81 60.22 578.82 29.69 M 455.42 180.8 C 496.31 136.03 533.98 92.52 586.3 30.23 M 455.42 180.8 C 502.08 127.28 547.06 74.02 586.3 30.23 M 463.88 180.21 C 507.15 128.36 555.92 71.07 591.81 33.04 M 463.88 180.21 C 498.14 139.78 534.15 101.7 591.81 33.04 M 471.36 180.75 C 500.65 149.39 530.65 114.39 591.42 42.63 M 471.36 180.75 C 504.23 141.82 536.65 105.25 591.42 42.63 M 479.83 180.15 C 516.44 140.25 549.27 101.82 592.01 51.1 M 479.83 180.15 C 506.6 151.74 534.01 121.29 592.01 51.1 M 487.31 180.69 C 529.41 131.53 571.24 90.27 591.62 60.7 M 487.31 180.69 C 519.2 145 547.79 110.22 591.62 60.7 M 495.77 180.1 C 514.82 157.11 539.48 132.42 591.23 70.29 M 495.77 180.1 C 525.2 145.72 554.88 112.95 591.23 70.29 M 503.25 180.64 C 530.01 149.53 559.63 121.11 591.82 78.76 M 503.25 180.64 C 529.8 147.59 559.16 117.05 591.82 78.76 M 510.73 181.18 C 528.43 161.53 546.56 139.04 591.43 88.35 M 510.73 181.18 C 542.72 144.44 573.36 109.92 591.43 88.35 M 519.2 180.59 C 541.58 151.28 569.19 128.09 592.02 96.82 M 519.2 180.59 C 544.83 150.97 568.63 122.27 592.02 96.82 M 526.68 181.13 C 542.12 167.34 553.09 152.91 591.63 106.42 M 526.68 181.13 C 549.92 154.69 571.57 128.58 591.63 106.42 M 535.14 180.54 C 552.15 156.96 575.53 134.97 591.24 116.01 M 535.14 180.54 C 549.16 166.33 560.21 150.87 591.24 116.01 M 542.62 181.08 C 559.01 167.02 567.81 148.82 591.83 124.48 M 542.62 181.08 C 557.98 163.5 575.7 144.44 591.83 124.48 M 551.09 180.49 C 559.29 170.51 566.32 163.32 591.44 134.07 M 551.09 180.49 C 563.92 163.53 578.12 148.75 591.44 134.07 M 558.57 181.03 C 568.16 166.23 579.42 153.19 592.03 142.54 M 558.57 181.03 C 565.22 172.29 571.27 165.75 592.03 142.54 M 567.03 180.44 C 571.82 171.4 582.7 165 591.64 152.13 M 567.03 180.44 C 573.17 174.96 578.4 166.87 591.64 152.13 M 574.51 180.98 C 580.94 175.5 582.2 171.23 591.24 161.73 M 574.51 180.98 C 582.41 174.43 588.79 164.48 591.24 161.73 M 582.98 180.38 C 587.16 175.34 589.65 172.72 591.84 170.2 M 582.98 180.38 C 584.48 178.22 586.45 175.35 591.84 170.2" fill="none" stroke="#dae8fc" stroke-width="0.75" stroke-linejoin="round" stroke-linecap="round" stroke-miterlimit="10"></path>
    <path d="M 109.5 30 C 274.17 31.65 440.28 32.71 588 30 M 109.5 30 C 234.83 29.41 358.71 29.81 588 30 M 588 30 C 586.21 82.37 584.12 127.1 588 177 M 588 30 C 588.12 60.14 586.76 89.05 588 177 M 588 177 C 398.8 182 210.34 179.03 109.5 177 M 588 177 C 418.2 175.98 250.16 176.42 109.5 177 M 109.5 177 C 106.92 122.3 107.53 66.54 109.5 30 M 109.5 177 C 109.26 146.62 109.81 118.74 109.5 30" fill="none" stroke="#6c8ebf" stroke-width="1.5" stroke-linejoin="round" stroke-linecap="round" stroke-miterlimit="10"></path>
    <g transform="translate(-0.5 -0.5)scale(1.5)">
      <switch>
        <text x="233" y="115" fill="rgb(0, 0, 0)" font-family="Helvetica" font-size="14px" text-anchor="middle">Docker</text>
      </switch>
    </g>
    <rect x="257.25" y="54" width="90" height="63" fill="none" stroke="none"></rect>
    <path d="M 257.13 54.14 C 257.13 54.14 257.13 54.14 257.13 54.14 M 257.13 54.14 C 257.13 54.14 257.13 54.14 257.13 54.14 M 257.72 62.61 C 259.04 61.04 261.26 57.79 265.59 53.55 M 257.72 62.61 C 259.41 60.16 262.71 57.22 265.59 53.55 M 257.33 72.2 C 261.2 67.31 267.19 58.55 273.07 54.09 M 257.33 72.2 C 263.48 64.96 269.52 58.87 273.07 54.09 M 256.94 81.8 C 262.53 75.81 268.9 67.9 281.54 53.5 M 256.94 81.8 C 262.1 74.98 270.07 66.84 281.54 53.5 M 257.53 90.26 C 269.48 80.61 275.67 67.38 289.02 54.04 M 257.53 90.26 C 268.75 75.25 280.84 63.39 289.02 54.04 M 257.13 99.86 C 275.09 81.3 289.1 64.21 297.48 53.45 M 257.13 99.86 C 271.54 84.28 284.73 68.13 297.48 53.45 M 257.73 108.32 C 269.97 95.75 282.32 77.81 304.96 53.99 M 257.73 108.32 C 268.63 98.44 277.01 86.38 304.96 53.99 M 257.33 117.92 C 272.46 102 289.14 81.58 312.44 54.53 M 257.33 117.92 C 276.47 95.1 298.02 70.16 312.44 54.53 M 265.8 117.33 C 278.55 103.48 294.11 83.44 320.91 53.93 M 265.8 117.33 C 286.49 94.9 307.83 70.66 320.91 53.93 M 273.28 117.87 C 284.43 100.57 298.21 88.49 328.39 54.47 M 273.28 117.87 C 291.08 96.95 308.63 79.09 328.39 54.47 M 281.74 117.28 C 299.44 95.31 318.58 72.16 336.85 53.88 M 281.74 117.28 C 298.8 99.61 312.36 80.56 336.85 53.88 M 289.22 117.82 C 303.11 98.97 321.46 81.14 344.33 54.42 M 289.22 117.82 C 302.66 103.84 313.58 91.79 344.33 54.42 M 297.69 117.23 C 316.22 95.39 336.51 72.63 349.85 57.23 M 297.69 117.23 C 310.37 103.55 320.52 91.49 349.85 57.23 M 305.17 117.77 C 313.74 108.16 327.65 95.03 350.44 65.69 M 305.17 117.77 C 320.18 102.43 335.06 86.05 350.44 65.69 M 313.63 117.17 C 325.89 99.79 340.85 85.31 350.05 75.29 M 313.63 117.17 C 325.1 103.11 338.95 90.18 350.05 75.29 M 321.12 117.71 C 327.83 109.8 333.05 100.2 350.64 83.75 M 321.12 117.71 C 330.58 108.6 339.15 97.74 350.64 83.75 M 329.58 117.12 C 335.57 108.26 347.43 100.82 350.25 93.35 M 329.58 117.12 C 333.86 112.15 338.65 106.15 350.25 93.35 M 337.06 117.66 C 341.81 110.07 345.54 104.32 349.85 102.95 M 337.06 117.66 C 341.23 114.77 343.33 109.38 349.85 102.95 M 345.52 117.07 C 347.57 116.23 347.72 113.89 350.45 111.41 M 345.52 117.07 C 347.16 115.67 348.06 113.58 350.45 111.41" fill="none" stroke="#b1ddf0" stroke-width="0.75" stroke-linejoin="round" stroke-linecap="round" stroke-miterlimit="10"></path>
    <path d="M 257.25 54 C 288.69 56.5 322.08 52.6 347.25 54 M 257.25 54 C 276.95 54.65 292.74 55.87 347.25 54 M 347.25 54 C 345.42 70.17 345.91 80.18 347.25 117 M 347.25 54 C 345.81 75.75 347.14 99.31 347.25 117 M 347.25 117 C 321.57 116.52 292.72 116.78 257.25 117 M 347.25 117 C 326.03 117.01 303.66 117.3 257.25 117 M 257.25 117 C 257.67 101.59 259.88 84.59 257.25 54 M 257.25 117 C 258.37 96.78 256.42 78.82 257.25 54" fill="none" stroke="#10739e" stroke-width="1.5" stroke-linejoin="round" stroke-linecap="round" stroke-miterlimit="10"></path>
    <g transform="translate(-0.5 -0.5)scale(1.5)">
      <switch>
        <text x="202" y="61" fill="rgb(0, 0, 0)" font-family="Helvetica" font-size="12px" text-anchor="middle">Frontend</text>
      </switch>
    </g>
    <rect x="365.25" y="54" width="90" height="63" fill="none" stroke="none"></rect>
    <path d="M 364.9 54.41 C 364.9 54.41 364.9 54.41 364.9 54.41 M 364.9 54.41 C 364.9 54.41 364.9 54.41 364.9 54.41 M 365.49 62.87 C 368.43 59.42 371.97 56.96 373.36 53.82 M 365.49 62.87 C 367.66 60.73 368.87 58.33 373.36 53.82 M 365.09 72.47 C 366.92 70.44 372.65 62.36 380.84 54.36 M 365.09 72.47 C 370.62 65.1 377.44 58.4 380.84 54.36 M 365.69 80.93 C 371.32 76.79 374.54 68.01 389.3 53.76 M 365.69 80.93 C 372.19 75.93 375.78 67.58 389.3 53.76 M 365.29 90.53 C 378.31 75.71 387.66 64.69 396.79 54.3 M 365.29 90.53 C 374.05 79.5 382.92 70.54 396.79 54.3 M 364.9 100.13 C 376.47 86.54 393.92 70.85 405.25 53.71 M 364.9 100.13 C 380.4 82.76 396.38 64.57 405.25 53.71 M 365.49 108.59 C 380.87 93.58 392.23 78.64 412.73 54.25 M 365.49 108.59 C 374.94 96.92 383.51 86.41 412.73 54.25 M 366.09 117.06 C 378.92 101.82 391.58 86.33 421.2 53.66 M 366.09 117.06 C 385.27 94.31 407.41 69.96 421.2 53.66 M 373.57 117.6 C 390.44 99.37 408.68 77.09 428.68 54.2 M 373.57 117.6 C 387.45 101.77 400.42 85.94 428.68 54.2 M 382.03 117 C 401.54 96.65 414.89 74.36 437.14 53.61 M 382.03 117 C 401.69 93.65 421.05 72.83 437.14 53.61 M 389.51 117.54 C 407.47 91.46 429.54 72.91 444.62 54.15 M 389.51 117.54 C 410.47 96.52 429.29 74.77 444.62 54.15 M 397.98 116.95 C 419.49 94.43 437.59 72.27 453.09 53.56 M 397.98 116.95 C 416.18 95.26 432.36 75.12 453.09 53.56 M 405.46 117.49 C 423.53 101.75 439.48 82.23 458.6 56.36 M 405.46 117.49 C 427.65 93.44 448.66 68.3 458.6 56.36 M 413.92 116.9 C 421.27 107 435.47 94.83 458.21 65.96 M 413.92 116.9 C 423.37 107.83 432.87 95.84 458.21 65.96 M 421.4 117.44 C 433.4 99.03 448.51 80.56 458.8 74.42 M 421.4 117.44 C 432.98 102.6 444.54 91.67 458.8 74.42 M 428.88 117.98 C 440.42 106.43 446.13 94.06 458.41 84.02 M 428.88 117.98 C 439.59 105.83 450.22 95.44 458.41 84.02 M 437.35 117.39 C 442.1 111.24 452.33 100.87 458.01 93.62 M 437.35 117.39 C 443.7 111.05 448.46 103.38 458.01 93.62 M 444.83 117.93 C 451.76 111.85 454.54 106.34 458.61 102.08 M 444.83 117.93 C 449.25 111.7 454.8 106.34 458.61 102.08 M 453.29 117.34 C 455.23 116.14 456.55 112.82 458.21 111.68 M 453.29 117.34 C 454.41 116.25 455.83 114.89 458.21 111.68" fill="none" stroke="#b1ddf0" stroke-width="0.75" stroke-linejoin="round" stroke-linecap="round" stroke-miterlimit="10"></path>
    <path d="M 365.25 54 C 394.98 53.86 426.6 50.27 455.25 54 M 365.25 54 C 390.23 54.42 414.86 54.47 455.25 54 M 455.25 54 C 453.65 69.65 458.44 85.87 455.25 117 M 455.25 54 C 455.76 73.85 455.44 95.52 455.25 117 M 455.25 117 C 432.12 118.37 403.7 114.88 365.25 117 M 455.25 117 C 429.21 117.4 404.7 116.02 365.25 117 M 365.25 117 C 362.6 105.29 365.6 88.74 365.25 54 M 365.25 117 C 366.75 99.71 365.05 84.57 365.25 54" fill="none" stroke="#10739e" stroke-width="1.5" stroke-linejoin="round" stroke-linecap="round" stroke-miterlimit="10"></path>
    <g transform="translate(-0.5 -0.5)scale(1.5)">
      <switch>
        <text x="274" y="61" fill="rgb(0, 0, 0)" font-family="Helvetica" font-size="12px" text-anchor="middle">Backend</text>
      </switch>
    </g>
    <rect x="469.23" y="54" width="90" height="63" fill="none" stroke="none"></rect>
    <path d="M 469.78 52.23 L 557.31 56.67 L 559.82 119.64 L 471.16 117.36" fill="rgb(255, 255, 255)" stroke="none"></path>
    <path d="M 469.23 54 C 503.24 53.02 533.1 55.73 559.23 54 M 469.23 54 C 499.48 54.2 532.96 53.08 559.23 54 M 559.23 54 C 556.61 69.12 559.68 91.55 559.23 117 M 559.23 54 C 558.7 71.94 559.72 91.73 559.23 117 M 559.23 117 C 538.65 114.23 516.66 118.99 469.23 117 M 559.23 117 C 531.37 117.79 501.71 117.74 469.23 117 M 469.23 117 C 470.77 96.4 468.57 73.7 469.23 54 M 469.23 117 C 468.1 102.64 469.66 90.32 469.23 54" fill="none" stroke="rgb(0, 0, 0)" stroke-width="1.5" stroke-linejoin="round" stroke-linecap="round" stroke-miterlimit="10"></path>
    <g transform="translate(-0.5 -0.5)scale(1.5)">
      <switch>
        <text x="343" y="61" fill="rgb(0, 0, 0)" font-family="Helvetica" font-size="12px" text-anchor="middle">DB</text>
      </switch>
    </g>
    <rect x="151.77" y="54" width="90" height="63" fill="none" stroke="none"></rect>
    <path d="M 151.78 53.99 C 151.78 53.99 151.78 53.99 151.78 53.99 M 151.78 53.99 C 151.78 53.99 151.78 53.99 151.78 53.99 M 151.39 63.59 C 154.46 60.3 155.4 57.71 159.26 54.53 M 151.39 63.59 C 153.1 61.31 155.18 58.34 159.26 54.53 M 151.98 72.05 C 157.26 68.94 156.58 65.49 167.72 53.94 M 151.98 72.05 C 155.95 65.44 160.88 60.36 167.72 53.94 M 151.59 81.65 C 163.79 70.15 170.72 61.45 175.21 54.48 M 151.59 81.65 C 161.36 72.02 170.07 62.15 175.21 54.48 M 152.18 90.11 C 158.62 82.75 166.99 75.38 183.67 53.89 M 152.18 90.11 C 159.66 79.44 168.86 70.76 183.67 53.89 M 151.79 99.71 C 163.5 88.79 171.94 75.55 191.15 54.43 M 151.79 99.71 C 160.95 87.48 171.65 75.63 191.15 54.43 M 151.39 109.3 C 163.37 92.83 181.87 75.67 199.62 53.83 M 151.39 109.3 C 167.96 91.14 182.17 73.94 199.62 53.83 M 151.99 117.77 C 165.6 99.17 183.74 86.58 207.1 54.37 M 151.99 117.77 C 173.44 93 192.48 69.03 207.1 54.37 M 160.45 117.18 C 174.14 102.11 192.42 83.55 215.56 53.78 M 160.45 117.18 C 182.34 94.55 200.78 68.73 215.56 53.78 M 167.93 117.72 C 184.44 99.55 201.8 78.28 223.04 54.32 M 167.93 117.72 C 182.64 102.33 195.67 86.02 223.04 54.32 M 176.4 117.13 C 186.8 105.57 201.72 88.08 231.51 53.73 M 176.4 117.13 C 188.94 102.72 199.43 89.2 231.51 53.73 M 183.88 117.67 C 203.54 90.3 228.73 68.92 238.99 54.27 M 183.88 117.67 C 198.97 99.24 215.93 81.01 238.99 54.27 M 192.34 117.07 C 200.89 104.96 215.21 91.91 244.5 57.07 M 192.34 117.07 C 211.47 93.88 231.27 72.94 244.5 57.07 M 199.82 117.61 C 214.16 104.01 221 88.66 245.09 65.54 M 199.82 117.61 C 216.08 100.28 230.85 81.54 245.09 65.54 M 208.29 117.02 C 217.7 102.58 231.07 90.85 244.7 75.14 M 208.29 117.02 C 217.23 105.03 226.55 94.79 244.7 75.14 M 215.77 117.56 C 228.03 104 236.54 94.85 245.29 83.6 M 215.77 117.56 C 228 104.16 237.43 91.65 245.29 83.6 M 224.23 116.97 C 229.29 107.3 238.16 99.58 244.9 93.2 M 224.23 116.97 C 229.27 112.12 235.22 105.69 244.9 93.2 M 231.71 117.51 C 237.2 112.56 238.47 107.87 244.51 102.79 M 231.71 117.51 C 235.09 113.19 239.44 108.65 244.51 102.79 M 240.18 116.92 C 241.69 114.53 243.81 112.44 245.1 111.26 M 240.18 116.92 C 242.12 114.5 244.12 112.22 245.1 111.26" fill="none" stroke="#b1ddf0" stroke-width="0.75" stroke-linejoin="round" stroke-linecap="round" stroke-miterlimit="10"></path>
    <path d="M 151.77 54 C 183.23 55.27 215.2 53.75 241.77 54 M 151.77 54 C 172.14 53.81 192.52 55.2 241.77 54 M 241.77 54 C 241.92 77.01 242.55 102.58 241.77 117 M 241.77 54 C 241.48 69.22 241.49 86.78 241.77 117 M 241.77 117 C 221.48 116.93 198.67 120.15 151.77 117 M 241.77 117 C 208.62 116.54 174.15 118.1 151.77 117 M 151.77 117 C 150.21 104.51 150.7 89.28 151.77 54 M 151.77 117 C 151.6 93.66 150.65 72.34 151.77 54" fill="none" stroke="#10739e" stroke-width="1.5" stroke-linejoin="round" stroke-linecap="round" stroke-miterlimit="10"></path>
    <g transform="translate(-0.5 -0.5)scale(1.5)">
      <switch>
        <text x="131" y="61" fill="rgb(0, 0, 0)" font-family="Helvetica" font-size="12px" text-anchor="middle">Web-SSH</text>
      </switch>
    </g>
    <rect x="151.77" y="54" width="90" height="63" fill="none" stroke="none"></rect>
    <path d="M 152.05 54.53 L 243.1 55.83 L 239.46 114.16 L 148.78 117.96" fill="rgb(255, 255, 255)" stroke="none"></path>
    <path d="M 151.77 54 C 179.25 52.43 201.02 51.21 241.77 54 M 151.77 54 C 179.04 54.77 208.75 55.49 241.77 54 M 241.77 54 C 238.96 69.42 243.15 82.82 241.77 117 M 241.77 54 C 240.75 71.13 241.06 89.81 241.77 117 M 241.77 117 C 213.35 117.66 187.56 116.69 151.77 117 M 241.77 117 C 218.14 116.55 195.98 117.36 151.77 117 M 151.77 117 C 150.41 97.31 151.42 71.97 151.77 54 M 151.77 117 C 150.55 101.95 151.7 87.05 151.77 54" fill="none" stroke="rgb(0, 0, 0)" stroke-width="1.5" stroke-linejoin="round" stroke-linecap="round" stroke-miterlimit="10"></path>
    <g transform="translate(-0.5 -0.5)scale(1.5)">
      <switch>
        <text x="131" y="61" fill="rgb(0, 0, 0)" font-family="Helvetica" font-size="12px" text-anchor="middle">Web-SSH</text>
      </switch>
    </g>
    <rect x="257.25" y="54" width="90" height="63" fill="none" stroke="none"></rect>
    <path d="M 259.81 51.88 L 348.75 52.39 L 347.68 117.95 L 259.64 114.94" fill="rgb(255, 255, 255)" stroke="none"></path>
    <path d="M 257.25 54 C 283.01 51.59 309.02 56.67 347.25 54 M 257.25 54 C 292.8 54.55 325.34 54.09 347.25 54 M 347.25 54 C 344.68 68.89 347.16 88.51 347.25 117 M 347.25 54 C 348.18 69.22 346.83 86.02 347.25 117 M 347.25 117 C 321.38 119.52 302.02 114.8 257.25 117 M 347.25 117 C 321.8 116.94 294.5 116.08 257.25 117 M 257.25 117 C 260.08 101.01 255.88 82.12 257.25 54 M 257.25 117 C 257.66 92.28 259.07 67.6 257.25 54" fill="none" stroke="rgb(0, 0, 0)" stroke-width="1.5" stroke-linejoin="round" stroke-linecap="round" stroke-miterlimit="10"></path>
    <g transform="translate(-0.5 -0.5)scale(1.5)">
      <switch>
        <text x="202" y="61" fill="rgb(0, 0, 0)" font-family="Helvetica" font-size="12px" text-anchor="middle">Frontend</text>
      </switch>
    </g>
    <rect x="365.25" y="54" width="90" height="63" fill="none" stroke="none"></rect>
    <path d="M 364.1 55.22 L 456.92 54.96 L 452.41 115.75 L 367.03 117.91" fill="rgb(255, 255, 255)" stroke="none"></path>
    <path d="M 365.25 54 C 389.3 54.96 419.54 54.33 455.25 54 M 365.25 54 C 388.07 54.33 411.46 52.7 455.25 54 M 455.25 54 C 457.65 74.36 452.43 94.19 455.25 117 M 455.25 54 C 455.13 67.32 455.13 82.23 455.25 117 M 455.25 117 C 431.93 115.37 413 118.9 365.25 117 M 455.25 117 C 424.98 117.33 395.53 117.8 365.25 117 M 365.25 117 C 365.01 104.72 367.61 86.28 365.25 54 M 365.25 117 C 366.04 95.21 364.69 73.34 365.25 54" fill="none" stroke="rgb(0, 0, 0)" stroke-width="1.5" stroke-linejoin="round" stroke-linecap="round" stroke-miterlimit="10"></path>
    <g transform="translate(-0.5 -0.5)scale(1.5)">
      <switch>
        <text x="274" y="61" fill="rgb(0, 0, 0)" font-family="Helvetica" font-size="12px" text-anchor="middle">Backend</text>
      </switch>
    </g>
    <g transform="translate(-0.5 -0.5)scale(1.5)">
      <switch>
        <text x="429" y="585" fill="rgb(0, 0, 0)" font-family="Helvetica" font-size="12px" text-anchor="middle">Q-in-Q</text>
      </switch>
    </g>
    <path d="M 594.13 863.85 C 594.13 863.85 594.13 863.85 594.13 863.85 M 594.13 863.85 C 594.13 863.85 594.13 863.85 594.13 863.85 M 593.74 873.44 C 596.11 871.5 598.86 867.64 601.61 864.39 M 593.74 873.44 C 595.92 870.72 597.7 869.04 601.61 864.39 M 595.31 880.78 C 599.56 878.39 601.72 876.01 609.09 864.93 M 595.31 880.78 C 600.26 874.01 606.96 868.76 609.09 864.93 M 603.78 880.18 C 605.49 879.1 606.25 878.16 609.68 873.39 M 603.78 880.18 C 606.16 877.73 608.11 875.32 609.68 873.39" fill="none" stroke="#fff2cc" stroke-width="0.75" stroke-linejoin="round" stroke-linecap="round" stroke-miterlimit="10"></path>
    <path d="M 593.99 864 C 599.76 864.72 602.78 862.58 608.99 864 M 593.99 864 C 597.84 864.08 601.66 864.22 608.99 864 M 608.99 864 C 608.81 868.82 608.34 876.63 608.99 879 M 608.99 864 C 609.1 867.51 608.37 870.03 608.99 879 M 608.99 879 C 605.88 879.97 600.45 878.45 593.99 879 M 608.99 879 C 603.72 879.05 599.41 879.69 593.99 879 M 593.99 879 C 593.21 872.88 593.52 868.56 593.99 864 M 593.99 879 C 593.47 875.6 593.82 871.6 593.99 864" fill="none" stroke="#d6b656" stroke-width="1.5" stroke-linejoin="round" stroke-linecap="round" stroke-miterlimit="10"></path>
  </g>
  <switch>
    <g></g>
    <a transform="translate(0,-5)" xlink:href="https://www.diagrams.net/doc/faq/svg-export-text-problems">
      <text text-anchor="middle" font-size="10px" x="50%" y="100%">Text is not SVG - cannot display</text>
    </a>
  </switch>
</svg>
